<svg width="143" height="34" viewBox="0 0 143 34" fill="none" xmlns="http://www.w3.org/2000/svg">
<path d="M47.5524 15.2814C47.4417 20.3605 44.7154 24.731 40.7174 27.1816C39.1945 28.1154 37.4923 28.7191 35.7336 29.0312L13.7277 32.936L15.8858 28.6342L0 33.0703L11.2198 21.5761L6.71105 20.7348L23.0482 4.95498L23.5884 4.4333C26.4063 1.85014 30.2515 0.393135 34.3911 0.721138C41.8972 1.31571 47.7164 7.75342 47.5524 15.2814Z" fill="#434343"/>
<path d="M39.5447 9.61955L25.3737 9.24885C24.5146 9.22647 23.8935 10.0634 24.1642 10.879L25.0082 13.4226C25.275 14.2264 24.9918 15.1102 24.3077 15.6093L5.00806 29.9805L27.2053 21.6661C27.9651 21.4008 28.8099 21.6304 29.3308 22.2438L32.1581 25.572C32.3729 25.8245 32.7714 25.7945 32.9456 25.5126L41.048 12.4008C41.7876 11.2041 40.9509 9.65625 39.5447 9.61955Z" fill="white" fill-opacity="0.95"/>
<path d="M55.4767 24.7422L62.4246 14.1394L55.8091 3.59666H60.8539L65.0224 10.6047L69.2817 3.59666H74.2057L67.5901 14.2299L74.5381 24.7422H69.4327L65.0224 17.7037L60.4912 24.7422H55.4767Z" fill="#434343"/>
<path d="M81.4553 12.1453C80.4887 12.1453 79.6624 12.4377 78.9781 13.0213C78.2934 13.6057 77.8402 14.3708 77.6189 15.3173H85.3824C85.1604 14.4515 84.7028 13.7062 84.008 13.082C83.3132 12.458 82.4619 12.1453 81.4553 12.1453ZM81.5157 25.1348C79.9043 25.1348 78.4845 24.762 77.2563 24.017C76.0276 23.2724 75.0761 22.2801 74.4016 21.0415C73.7266 19.8032 73.3898 18.4287 73.3898 16.9183C73.3898 15.4079 73.7417 14.0235 74.4469 12.7646C75.1516 11.5062 76.1132 10.5043 77.3318 9.75897C78.5501 9.0142 79.9449 8.64142 81.5157 8.64142C83.0867 8.64142 84.4708 9.0142 85.6691 9.75897C86.8671 10.5043 87.8037 11.5062 88.4787 12.7646C89.1529 14.0235 89.4906 15.4079 89.4906 16.9183C89.4906 17.1401 89.4799 17.3715 89.4601 17.6131C89.4403 17.8547 89.4099 18.1066 89.3695 18.3683H77.6189C77.8402 19.2947 78.2882 20.0499 78.9632 20.6338C79.6377 21.2183 80.4887 21.5098 81.5157 21.5098C82.4018 21.5098 83.1721 21.3088 83.8265 20.9056C84.4807 20.5032 84.9896 19.9994 85.352 19.3952L88.524 21.7818C87.8992 22.7687 86.9631 23.5744 85.7144 24.1984C84.4656 24.8224 83.0661 25.1348 81.5157 25.1348Z" fill="#434343"/>
<path d="M91.2723 24.7422V9.03397H95.2295V12.0245C95.4911 10.8971 96.025 10.0362 96.8307 9.44189C97.6359 8.8481 98.7232 8.59142 100.093 8.6716V12.5079H99.5193C98.351 12.5079 97.3638 12.881 96.5589 13.6255C95.753 14.371 95.3505 15.398 95.3505 16.7069V24.7422H91.2723Z" fill="#434343"/>
<path d="M109.82 21.4499C110.685 21.4499 111.446 21.2385 112.101 20.8155C112.754 20.3925 113.263 19.8338 113.626 19.139C113.988 18.4442 114.17 17.7041 114.17 16.9188C114.17 16.093 113.988 15.3378 113.626 14.6532C113.263 13.9686 112.754 13.4198 112.101 13.0067C111.446 12.5941 110.685 12.3874 109.82 12.3874C108.933 12.3874 108.158 12.599 107.493 13.0218C106.829 13.4448 106.315 13.9988 105.953 14.6831C105.59 15.368 105.409 16.1235 105.409 16.9487C105.409 17.7546 105.59 18.4997 105.953 19.1843C106.315 19.8692 106.829 20.418 107.493 20.8306C108.158 21.2437 108.933 21.4499 109.82 21.4499ZM101.452 30.7842V9.03445H105.47V11.5718C105.893 10.7062 106.492 10.0114 107.267 9.48741C108.042 8.96416 109.114 8.70202 110.484 8.70202C111.572 8.70202 112.584 8.91861 113.52 9.35152C114.456 9.78469 115.277 10.3787 115.982 11.1339C116.687 11.8889 117.241 12.7651 117.644 13.7619C118.046 14.7586 118.248 15.8213 118.248 16.9487C118.248 18.4593 117.9 19.8338 117.205 21.0722C116.511 22.3108 115.579 23.2976 114.411 24.0325C113.243 24.7677 111.934 25.1352 110.484 25.1352C109.135 25.1352 108.078 24.8882 107.312 24.3951C106.547 23.9018 105.953 23.2425 105.53 22.4165V30.7842H101.452Z" fill="#434343"/>
<path d="M120.06 2.6905H124.138V24.7422H120.06V2.6905Z" fill="#434343"/>
<path d="M128.156 31.0557C127.752 31.0557 127.299 31.0354 126.796 30.9953C126.293 30.9547 125.84 30.8745 125.437 30.7534L126.041 26.8567C126.605 26.9973 127.219 27.0681 127.884 27.0681C128.669 27.0681 129.313 26.8416 129.817 26.3884C130.32 25.9354 130.683 25.3661 130.905 24.6817L131.116 24.0171L124.893 9.0339H129.817L132.868 18.0058C133.15 18.8115 133.371 19.6474 133.533 20.513C133.693 19.6474 133.915 18.8115 134.197 18.0058L137.248 9.0339H142.081L135.134 25.7392C134.469 27.3297 133.603 28.6136 132.536 29.5906C131.468 30.567 130.008 31.0557 128.156 31.0557Z" fill="#434343"/>
</svg>
