<svg width="143" height="34" viewBox="0 0 143 34" fill="none" xmlns="http://www.w3.org/2000/svg">
<path d="M48.0116 15.4085C47.901 20.4876 45.1746 24.8581 41.1766 27.3088C39.6538 28.2425 37.9515 28.8462 36.1928 29.1583L14.1869 33.0631L16.345 28.7613L0.459229 33.1974L11.679 21.7033L7.17027 20.8619L23.5074 5.08212L24.0476 4.56043C26.8656 1.97728 30.7107 0.520271 34.8503 0.848274C42.3564 1.44284 48.1756 7.88056 48.0116 15.4085Z" fill="#3F4FB4"/>
<path d="M40.0039 9.74653L25.8329 9.37584C24.9738 9.35345 24.3527 10.1904 24.6234 11.006L25.4674 13.5495C25.7342 14.3534 25.451 15.2372 24.7669 15.7362L5.46729 30.1075L27.6645 21.7931C28.4244 21.5278 29.2691 21.7574 29.79 22.3707L32.6173 25.6989C32.8321 25.9514 33.2307 25.9215 33.4048 25.6396L41.5073 12.5278C42.2468 11.3311 41.4102 9.78324 40.0039 9.74653Z" fill="#13C2C2"/>
<path d="M55.9358 24.8691L62.8837 14.2663L56.2682 3.72362H61.313L65.4815 10.7317L69.7408 3.72362H74.6648L68.0493 14.3569L74.9972 24.8691H69.8918L65.4815 17.8306L60.9503 24.8691H55.9358Z" fill="#3F4FB4"/>
<path d="M81.9145 12.2723C80.9479 12.2723 80.1217 12.5647 79.4373 13.1483C78.7526 13.7327 78.2994 14.4978 78.0782 15.4443H85.8417C85.6196 14.5785 85.162 13.8332 84.4672 13.209C83.7724 12.585 82.9211 12.2723 81.9145 12.2723ZM81.9749 25.2618C80.3635 25.2618 78.9437 24.889 77.7155 24.144C76.4868 23.3994 75.5354 22.4071 74.8609 21.1685C74.1859 19.9302 73.849 18.5557 73.849 17.0453C73.849 15.5349 74.201 14.1505 74.9062 12.8916C75.6108 11.6332 76.5725 10.6313 77.791 9.88597C79.0093 9.1412 80.4041 8.76842 81.9749 8.76842C83.5459 8.76842 84.93 9.1412 86.1283 9.88597C87.3263 10.6313 88.2629 11.6332 88.9379 12.8916C89.6121 14.1505 89.9498 15.5349 89.9498 17.0453C89.9498 17.2671 89.9391 17.4985 89.9193 17.7401C89.8995 17.9817 89.8691 18.2336 89.8287 18.4953H78.0782C78.2994 19.4217 78.7474 20.1769 79.4224 20.7608C80.0969 21.3453 80.9479 21.6368 81.9749 21.6368C82.861 21.6368 83.6313 21.4358 84.2857 21.0326C84.9399 20.6302 85.4489 20.1264 85.8112 19.5222L88.9832 21.9088C88.3584 22.8957 87.4223 23.7014 86.1736 24.3254C84.9248 24.9494 83.5253 25.2618 81.9749 25.2618Z" fill="#3F4FB4"/>
<path d="M91.7316 24.8691V9.16092H95.6887V12.1515C95.9503 11.024 96.4842 10.1631 97.2899 9.56884C98.0951 8.97505 99.1824 8.71837 100.553 8.79855V12.6349H99.9785C98.8102 12.6349 97.8231 13.0079 97.0181 13.7524C96.2122 14.498 95.8097 15.525 95.8097 16.8338V24.8691H91.7316Z" fill="#3F4FB4"/>
<path d="M110.279 21.5765C111.144 21.5765 111.905 21.3651 112.56 20.9421C113.214 20.519 113.723 19.9604 114.085 19.2656C114.448 18.5708 114.629 17.8307 114.629 17.0453C114.629 16.2196 114.448 15.4644 114.085 14.7798C113.723 14.0951 113.214 13.5464 112.56 13.1332C111.905 12.7206 111.144 12.5139 110.279 12.5139C109.392 12.5139 108.617 12.7256 107.953 13.1483C107.288 13.5714 106.775 14.1253 106.412 14.8097C106.05 15.4946 105.869 16.2501 105.869 17.0753C105.869 17.8812 106.05 18.6263 106.412 19.3109C106.775 19.9958 107.288 20.5446 107.953 20.9572C108.617 21.3703 109.392 21.5765 110.279 21.5765ZM101.911 30.9108V9.16102H105.929V11.6984C106.352 10.8328 106.951 10.138 107.726 9.61398C108.501 9.09074 109.574 8.82859 110.943 8.82859C112.031 8.82859 113.043 9.04518 113.979 9.47809C114.916 9.91126 115.736 10.5053 116.441 11.2605C117.146 12.0154 117.7 12.8917 118.103 13.8884C118.505 14.8852 118.707 15.9478 118.707 17.0753C118.707 18.5859 118.359 19.9604 117.665 21.1987C116.97 22.4373 116.038 23.4242 114.871 24.1591C113.702 24.8942 112.393 25.2618 110.943 25.2618C109.594 25.2618 108.537 25.0148 107.771 24.5217C107.006 24.0284 106.412 23.369 105.989 22.543V30.9108H101.911Z" fill="#3F4FB4"/>
<path d="M120.52 2.81735H124.598V24.869H120.52V2.81735Z" fill="#3F4FB4"/>
<path d="M128.615 31.1826C128.212 31.1826 127.759 31.1623 127.255 31.1223C126.752 31.0816 126.299 31.0015 125.896 30.8804L126.5 26.9837C127.064 27.1243 127.678 27.1951 128.343 27.1951C129.128 27.1951 129.773 26.9686 130.276 26.5154C130.779 26.0624 131.142 25.4931 131.364 24.8087L131.575 24.1441L125.353 9.16088H130.276L133.327 18.1328C133.609 18.9385 133.83 19.7744 133.992 20.64C134.153 19.7744 134.374 18.9385 134.656 18.1328L137.708 9.16088H142.541L135.593 25.8661C134.928 27.4567 134.062 28.7406 132.995 29.7176C131.927 30.694 130.467 31.1826 128.615 31.1826Z" fill="#3F4FB4"/>
</svg>
