<svg width="143" height="33" viewBox="0 0 143 33" fill="none" xmlns="http://www.w3.org/2000/svg">
<path d="M48.2279 15.1012C48.1173 20.1803 45.3909 24.5508 41.393 27.0014C39.8701 27.9352 38.1679 28.5389 36.4091 28.851L14.4032 32.7558L16.5613 28.454L0.675537 32.8901L11.8953 21.396L7.38658 20.5546L23.7237 4.77481L24.2639 4.25312C27.0819 1.66997 30.9271 0.212959 35.0667 0.540962C42.5727 1.13553 48.3919 7.57324 48.2279 15.1012Z" fill="white" fill-opacity="0.95"/>
<path d="M40.2202 9.43888L26.0492 9.06819C25.1901 9.0458 24.569 9.88273 24.8398 10.6983L25.6837 13.2419C25.9505 14.0458 25.6673 14.9296 24.9832 15.4286L5.68359 29.7998L27.8808 21.4854C28.6407 21.2202 29.4854 21.4498 30.0063 22.0631L32.8337 25.3913C33.0484 25.6438 33.447 25.6139 33.6211 25.3319L41.7236 12.2201C42.4631 11.0235 41.6265 9.47559 40.2202 9.43888Z" fill="#3F4FB4"/>
<path d="M56.1521 24.5615L63.1 13.9587L56.4845 3.416H61.5293L65.6978 10.4241L69.9571 3.416H74.8811L68.2656 14.0493L75.2135 24.5615H70.1081L65.6978 17.523L61.1666 24.5615H56.1521Z" fill="white" fill-opacity="0.95"/>
<path d="M82.1308 11.9647C81.1642 11.9647 80.338 12.257 79.6536 12.8406C78.969 13.4251 78.5157 14.1901 78.2945 15.1367H86.058C85.8359 14.2708 85.3783 13.5255 84.6835 12.9013C83.9887 12.2773 83.1375 11.9647 82.1308 11.9647ZM82.1912 24.9541C80.5798 24.9541 79.16 24.5813 77.9318 23.8363C76.7031 23.0918 75.7517 22.0994 75.0772 20.8608C74.4022 19.6225 74.0653 18.248 74.0653 16.7376C74.0653 15.2272 74.4173 13.8429 75.1225 12.584C75.8272 11.3256 76.7888 10.3236 78.0073 9.57831C79.2256 8.83353 80.6204 8.46075 82.1912 8.46075C83.7622 8.46075 85.1463 8.83353 86.3446 9.57831C87.5426 10.3236 88.4792 11.3256 89.1542 12.584C89.8285 13.8429 90.1661 15.2272 90.1661 16.7376C90.1661 16.9594 90.1554 17.1908 90.1356 17.4324C90.1159 17.674 90.0854 17.926 90.045 18.1876H78.2945C78.5157 19.1141 78.9637 19.8693 79.6388 20.4532C80.3132 21.0376 81.1642 21.3291 82.1912 21.3291C83.0773 21.3291 83.8476 21.1282 84.5021 20.7249C85.1562 20.3225 85.6652 19.8188 86.0275 19.2146L89.1995 21.6012C88.5748 22.5881 87.6386 23.3937 86.3899 24.0177C85.1411 24.6417 83.7417 24.9541 82.1912 24.9541Z" fill="white" fill-opacity="0.95"/>
<path d="M91.9479 24.5615V8.8533H95.905V11.8439C96.1666 10.7164 96.7005 9.85553 97.5062 9.26122C98.3114 8.66743 99.3988 8.41076 100.769 8.49093V12.3273H100.195C99.0265 12.3273 98.0394 12.7003 97.2345 13.4448C96.4285 14.1904 96.026 15.2173 96.026 16.5262V24.5615H91.9479Z" fill="white" fill-opacity="0.95"/>
<path d="M110.495 21.2692C111.361 21.2692 112.121 21.0578 112.776 20.6348C113.43 20.2118 113.939 19.6532 114.301 18.9584C114.664 18.2636 114.845 17.5235 114.845 16.7381C114.845 15.9124 114.664 15.1572 114.301 14.4725C113.939 13.7879 113.43 13.2391 112.776 12.826C112.121 12.4134 111.361 12.2067 110.495 12.2067C109.609 12.2067 108.834 12.4183 108.169 12.8411C107.505 13.2641 106.991 13.8181 106.628 14.5025C106.266 15.1874 106.085 15.9428 106.085 16.768C106.085 17.574 106.266 18.319 106.628 19.0037C106.991 19.6886 107.505 20.2373 108.169 20.6499C108.834 21.0631 109.609 21.2692 110.495 21.2692ZM102.127 30.6035V8.85379H106.145V11.3911C106.568 10.5256 107.167 9.83077 107.942 9.30674C108.718 8.7835 109.79 8.52136 111.16 8.52136C112.247 8.52136 113.259 8.73794 114.196 9.17086C115.132 9.60403 115.953 10.1981 116.658 10.9533C117.362 11.7082 117.916 12.5844 118.319 13.5812C118.722 14.578 118.923 15.6406 118.923 16.768C118.923 18.2787 118.576 19.6532 117.881 20.8915C117.186 22.1301 116.254 23.117 115.087 23.8519C113.919 24.587 112.61 24.9546 111.16 24.9546C109.81 24.9546 108.753 24.7075 107.988 24.2145C107.222 23.7212 106.628 23.0618 106.206 22.2358V30.6035H102.127Z" fill="white" fill-opacity="0.95"/>
<path d="M120.736 2.50983H124.814V24.5615H120.736V2.50983Z" fill="white" fill-opacity="0.95"/>
<path d="M128.831 30.875C128.428 30.875 127.975 30.8547 127.472 30.8146C126.968 30.774 126.515 30.6938 126.112 30.5728L126.717 26.676C127.28 26.8166 127.895 26.8874 128.559 26.8874C129.345 26.8874 129.989 26.6609 130.493 26.2077C130.996 25.7548 131.358 25.1854 131.58 24.5011L131.792 23.8365L125.569 8.85324H130.493L133.544 17.8252C133.825 18.6309 134.047 19.4667 134.208 20.3323C134.369 19.4667 134.59 18.6309 134.873 17.8252L137.924 8.85324H142.757L135.809 25.5585C135.145 27.149 134.279 28.4329 133.211 29.4099C132.144 30.3864 130.684 30.875 128.831 30.875Z" fill="white" fill-opacity="0.95"/>
</svg>
