<svg width="481" height="186" viewBox="0 0 481 186" fill="none" xmlns="http://www.w3.org/2000/svg">
<mask id="mask0_35_2244" style="mask-type:alpha" maskUnits="userSpaceOnUse" x="0" y="0" width="480" height="166">
<rect x="0.963867" y="0.512817" width="478.83" height="165.204" fill="black"/>
</mask>
<g mask="url(#mask0_35_2244)">
<path d="M0.963867 125.104L31.3412 94.8067C34.6182 91.5383 39.1057 89.7781 43.731 89.9468L76.8917 91.1569L114.349 93.7958C117.912 94.0468 121.46 93.1481 124.474 91.2319L172.07 60.9663C176.02 58.4549 181.262 59.6837 183.684 63.6885L210.946 108.765C213.755 113.411 218.65 116.399 224.066 116.775L263.872 119.538C269.168 119.906 274.322 117.731 277.755 113.681L297.613 90.2484C301.946 85.1356 308.918 83.1119 315.315 85.11L339.452 92.6493C348.357 95.431 357.813 90.3689 360.436 81.4156L368.502 53.8865C370.463 47.1935 376.38 42.4265 383.337 41.9354L423.526 39.0983C425.289 38.9739 427.02 38.5704 428.655 37.903L479.794 17.0332" stroke="#13C2C2" stroke-width="1.66833" stroke-linecap="round" stroke-dasharray="1.67 3.34"/>
</g>
<mask id="mask1_35_2244" style="mask-type:alpha" maskUnits="userSpaceOnUse" x="0" y="0" width="480" height="166">
<rect x="0.963867" y="0.512817" width="478.83" height="165.204" fill="black"/>
</mask>
<g mask="url(#mask1_35_2244)">
<mask id="mask2_35_2244" style="mask-type:alpha" maskUnits="userSpaceOnUse" x="0" y="26" width="480" height="140">
<path d="M23.3838 89.6077L0.963867 97.4576V165.717H479.794V46.7085L449.089 50.1764C446.183 50.5047 443.414 51.5909 441.06 53.3264L420.175 68.7255C414.134 73.18 405.861 73.0514 399.961 68.4111L384.189 56.0067C376.914 50.2849 367.074 49.046 358.608 52.7856L345.931 58.3847C340.015 60.9979 333.082 58.6716 329.94 53.0186L318.728 32.8504C314.477 25.2047 303.894 24.1688 298.242 30.8452L296.312 33.1249C289.125 41.6146 278.179 45.9644 267.125 44.7242L249.925 42.7944C243.782 42.1052 237.762 44.8691 234.28 49.9768L212.51 81.9132C209.103 86.9107 203.259 89.6731 197.235 89.133L164.987 86.2413C156.031 85.4382 147.131 88.2838 140.301 94.1331L136.665 97.248C126.665 105.814 114.354 111.229 101.283 112.814L87.3648 114.5C83.9626 114.913 80.6443 115.847 77.5265 117.27L73.3409 119.18C65.4522 122.78 56.1208 119.736 51.8715 112.178L43.4398 97.1785C39.4749 90.1253 31.0204 86.9339 23.3838 89.6077Z" fill="url(#paint0_radial_35_2244)"/>
</mask>
<g mask="url(#mask2_35_2244)">
<path opacity="0.6" d="M23.3838 89.6077L0.963867 97.4576V165.717H479.794V46.7085L449.089 50.1764C446.183 50.5047 443.414 51.5909 441.06 53.3264L420.175 68.7255C414.134 73.1801 405.861 73.0514 399.961 68.4111L384.189 56.0067C376.914 50.2849 367.074 49.046 358.608 52.7856L345.931 58.3847C340.015 60.9979 333.082 58.6716 329.94 53.0186L318.728 32.8504C314.477 25.2047 303.894 24.1688 298.242 30.8452L296.312 33.1249C289.125 41.6146 278.179 45.9644 267.125 44.7242L249.925 42.7944C243.782 42.1052 237.762 44.8691 234.28 49.9768L212.51 81.9132C209.103 86.9107 203.259 89.6731 197.235 89.133L164.987 86.2413C156.031 85.4382 147.131 88.2838 140.301 94.1331L136.665 97.248C126.665 105.814 114.354 111.229 101.283 112.814L87.3648 114.5C83.9626 114.913 80.6443 115.847 77.5265 117.27L73.3409 119.18C65.4522 122.78 56.1208 119.736 51.8715 112.178L43.4398 97.1785C39.4749 90.1253 31.0204 86.9339 23.3838 89.6077Z" fill="#434343"/>
</g>
<path d="M0.963867 97.1292L15.6908 91.9939C23.0185 89.4387 26.6823 88.1611 30.1297 88.4135C33.3423 88.6487 36.4181 89.8089 38.9857 91.754C41.7409 93.8413 43.6483 97.2204 47.4629 103.979L50.1629 108.762C51.7655 111.601 52.5669 113.021 53.4574 114.116C57.5913 119.2 64.3186 121.393 70.6547 119.723C72.0196 119.363 73.5037 118.689 76.4719 117.339C77.5369 116.855 78.0694 116.613 78.6071 116.391C81.0434 115.385 83.5903 114.671 86.1946 114.264C86.7695 114.174 87.3502 114.104 88.5115 113.964L98.5132 112.757C101.31 112.419 102.708 112.25 104.071 112.028C115.181 110.218 125.652 105.627 134.511 98.6827C135.598 97.8305 136.67 96.9164 138.813 95.0882C140.292 93.8263 141.032 93.1953 141.778 92.6281C147.884 87.9851 155.404 85.588 163.071 85.8403C164.008 85.8712 164.976 85.9576 166.913 86.1306L191.42 88.3192C197.089 88.8255 199.923 89.0786 202.528 88.472C204.832 87.9353 206.996 86.9146 208.876 85.4777C211 83.8536 212.608 81.5053 215.822 76.8088L230.883 54.8051C234.176 49.9946 235.822 47.5893 238.003 45.945C239.932 44.4905 242.154 43.4724 244.515 42.9611C247.185 42.3829 250.081 42.7066 255.875 43.354L265.688 44.4505C267.137 44.6124 267.861 44.6933 268.548 44.7415C278.647 45.4497 288.522 41.5343 295.392 34.0977C295.859 33.5919 296.331 33.0365 297.275 31.9258C298.152 30.8941 298.591 30.3782 298.951 30.0181C304.526 24.4486 313.8 25.3576 318.188 31.9037C318.472 32.3269 318.802 32.9181 319.462 34.1005L327.01 47.623C329.766 52.5614 331.145 55.0306 333.079 56.5684C335.375 58.3941 338.24 59.3549 341.172 59.2832C343.642 59.2227 346.231 58.084 351.408 55.8067C358.429 52.7182 361.94 51.1739 365.5 50.7106C369.732 50.1599 374.035 50.7006 377.999 52.2814C381.334 53.6113 384.353 55.9762 390.392 60.7061L394.009 63.5393C399.72 68.0127 402.576 70.2494 405.742 71.143C408.536 71.9317 411.487 71.9775 414.305 71.276C417.497 70.4812 420.42 68.3343 426.268 64.0404L438.914 54.7545C441.051 53.185 442.12 52.4003 443.281 51.8C444.312 51.2671 445.397 50.8433 446.516 50.5354C447.776 50.1887 449.094 50.0405 451.729 49.7441L479.794 46.5873" stroke="url(#paint1_linear_35_2244)" stroke-width="0.834164" stroke-linecap="round"/>
<path d="M0.963867 97.1292L15.6908 91.9939C23.0185 89.4387 26.6823 88.1611 30.1297 88.4135C33.3423 88.6487 36.4181 89.8089 38.9857 91.754C41.7409 93.8413 43.6483 97.2204 47.4629 103.979L50.1629 108.762C51.7655 111.601 52.5669 113.021 53.4574 114.116C57.5913 119.2 64.3186 121.393 70.6547 119.723C72.0196 119.363 73.5037 118.689 76.4719 117.339C77.5369 116.855 78.0694 116.613 78.6071 116.391C81.0434 115.385 83.5903 114.671 86.1946 114.264C86.7695 114.174 87.3502 114.104 88.5115 113.964L98.5132 112.757C101.31 112.419 102.708 112.25 104.071 112.028C115.181 110.218 125.652 105.627 134.511 98.6827C135.598 97.8305 136.67 96.9164 138.813 95.0882C140.292 93.8263 141.032 93.1953 141.778 92.6281C147.884 87.9851 155.404 85.588 163.071 85.8403C164.008 85.8712 164.976 85.9576 166.913 86.1306L191.42 88.3192C197.089 88.8255 199.923 89.0786 202.528 88.472C204.832 87.9353 206.996 86.9146 208.876 85.4777C211 83.8536 212.608 81.5053 215.822 76.8088L230.883 54.8051C234.176 49.9946 235.822 47.5893 238.003 45.945C239.932 44.4905 242.154 43.4724 244.515 42.9611C247.185 42.3829 250.081 42.7066 255.875 43.354L265.688 44.4505C267.137 44.6124 267.861 44.6933 268.548 44.7415C278.647 45.4497 288.522 41.5343 295.392 34.0977C295.859 33.5919 296.331 33.0365 297.275 31.9258C298.152 30.8941 298.591 30.3782 298.951 30.0181C304.526 24.4486 313.8 25.3576 318.188 31.9037C318.472 32.3269 318.802 32.9181 319.462 34.1005L327.01 47.623C329.766 52.5614 331.145 55.0306 333.079 56.5684C335.375 58.3941 338.24 59.3549 341.172 59.2832C343.642 59.2227 346.231 58.084 351.408 55.8067C358.429 52.7182 361.94 51.1739 365.5 50.7106C369.732 50.1599 374.035 50.7006 377.999 52.2814C381.334 53.6113 384.353 55.9762 390.392 60.7061L394.009 63.5393C399.72 68.0127 402.576 70.2494 405.742 71.143C408.536 71.9317 411.487 71.9775 414.305 71.276C417.497 70.4812 420.42 68.3343 426.268 64.0404L438.914 54.7545C441.051 53.185 442.12 52.4003 443.281 51.8C444.312 51.2671 445.397 50.8433 446.516 50.5354C447.776 50.1887 449.094 50.0405 451.729 49.7441L479.794 46.5873" stroke="#434343" stroke-width="0.834164" stroke-linecap="round" style="mix-blend-mode:screen"/>
</g>
<defs>
<radialGradient id="paint0_radial_35_2244" cx="0" cy="0" r="1" gradientUnits="userSpaceOnUse" gradientTransform="translate(240.378 44.3454) rotate(90) scale(101.754 239.414)">
<stop stop-opacity="0.1"/>
<stop offset="1" stop-opacity="0"/>
</radialGradient>
<linearGradient id="paint1_linear_35_2244" x1="3.22098" y1="137.304" x2="479.794" y2="137.304" gradientUnits="userSpaceOnUse">
<stop stop-opacity="0.4"/>
<stop offset="1"/>
</linearGradient>
</defs>
</svg>
