<svg width="669" height="133" viewBox="0 0 669 133" fill="none" xmlns="http://www.w3.org/2000/svg">
<g opacity="0.25">
<path d="M578.086 19.1719C573.684 19.1719 570.117 15.6038 570.117 11.2012C570.117 6.80117 573.684 3.2319 578.086 3.2319C582.488 3.2319 586.057 6.80117 586.057 11.2012C586.057 15.6038 582.488 19.1719 578.086 19.1719Z" fill="#3F4FB4"/>
<path d="M602.017 14.6973C600.086 14.6973 598.52 13.1332 598.52 11.2012C598.52 9.27057 600.086 7.70527 602.017 7.70527C603.949 7.70527 605.513 9.27057 605.513 11.2012C605.513 13.1332 603.949 14.6973 602.017 14.6973Z" fill="#3F4FB4"/>
<path d="M618.394 14.6973C616.462 14.6973 614.898 13.1332 614.898 11.2012C614.898 9.27057 616.462 7.70527 618.394 7.70527C620.325 7.70527 621.892 9.27057 621.892 11.2012C621.892 13.1332 620.325 14.6973 618.394 14.6973Z" fill="#3F4FB4"/>
<path d="M360.361 47.9199C355.958 47.9199 352.392 44.3533 352.392 39.9506C352.392 35.5493 355.958 31.9799 360.361 31.9799C364.762 31.9799 368.332 35.5493 368.332 39.9506C368.332 44.3533 364.762 47.9199 360.361 47.9199Z" fill="#3F4FB4"/>
<path d="M384.292 43.4492C382.361 43.4492 380.796 41.8826 380.796 39.9519C380.796 38.0212 382.361 36.4559 384.292 36.4559C386.224 36.4559 387.788 38.0212 387.788 39.9519C387.788 41.8826 386.224 43.4492 384.292 43.4492Z" fill="#3F4FB4"/>
<path d="M400.671 43.4492C398.739 43.4492 397.173 41.8826 397.173 39.9519C397.173 38.0212 398.739 36.4559 400.671 36.4559C402.601 36.4559 404.167 38.0212 404.167 39.9519C404.167 41.8826 402.601 43.4492 400.671 43.4492Z" fill="#3F4FB4"/>
<path d="M255.212 66.8008C250.81 66.8008 247.241 63.2315 247.241 58.8301C247.241 54.4275 250.81 50.8608 255.212 50.8608C259.613 50.8608 263.181 54.4275 263.181 58.8301C263.181 63.2315 259.613 66.8008 255.212 66.8008Z" fill="#3F4FB4"/>
<path d="M279.142 62.3262C277.212 62.3262 275.646 60.7609 275.646 58.8302C275.646 56.8995 277.212 55.3342 279.142 55.3342C281.073 55.3342 282.64 56.8995 282.64 58.8302C282.64 60.7609 281.073 62.3262 279.142 62.3262Z" fill="#3F4FB4"/>
<path d="M295.52 62.3262C293.589 62.3262 292.024 60.7609 292.024 58.8302C292.024 56.8995 293.589 55.3342 295.52 55.3342C297.452 55.3342 299.016 56.8995 299.016 58.8302C299.016 60.7609 297.452 62.3262 295.52 62.3262Z" fill="#3F4FB4"/>
<path d="M143.704 15.8276C148.105 15.8276 151.674 19.3956 151.674 23.7982C151.674 28.1982 148.105 31.7676 143.704 31.7676C139.302 31.7676 135.733 28.1982 135.733 23.7982C135.733 19.3956 139.302 15.8276 143.704 15.8276Z" fill="#3F4FB4"/>
<path d="M119.773 20.3029C121.704 20.3029 123.269 21.8669 123.269 23.7989C123.269 25.7296 121.704 27.2949 119.773 27.2949C117.841 27.2949 116.277 25.7296 116.277 23.7989C116.277 21.8669 117.841 20.3029 119.773 20.3029Z" fill="#3F4FB4"/>
<path d="M103.396 20.3029C105.326 20.3029 106.892 21.8669 106.892 23.7989C106.892 25.7296 105.326 27.2949 103.396 27.2949C101.465 27.2949 99.8982 25.7296 99.8982 23.7989C99.8982 21.8669 101.465 20.3029 103.396 20.3029Z" fill="#3F4FB4"/>
<path d="M668 11.3339L493.316 11.3339L464.699 39.9512L359.163 39.9512L326.853 7.64186L224.496 7.64186" stroke="#3F4FB4" stroke-width="1.33333" stroke-miterlimit="10" stroke-linecap="round" stroke-linejoin="round"/>
<path d="M218.49 13.6465C215.176 13.6465 212.486 10.9598 212.486 7.64251C212.486 4.32651 215.176 1.63984 218.49 1.63984C221.808 1.63984 224.496 4.32651 224.496 7.64251C224.496 10.9598 221.808 13.6465 218.49 13.6465Z" stroke="#3F4FB4" stroke-width="1.33333" stroke-miterlimit="10" stroke-linecap="round" stroke-linejoin="round"/>
<path d="M1.33308 23.3341L144.17 23.3341L179.666 58.8301L385 58.8301" stroke="#3F4FB4" stroke-width="1.33333" stroke-miterlimit="10" stroke-linecap="round" stroke-linejoin="round"/>
<path d="M391.004 64.834C387.688 64.834 385 62.146 385 58.83C385 55.514 387.688 52.826 391.004 52.826C394.32 52.826 397.009 55.514 397.009 58.83C397.009 62.146 394.32 64.834 391.004 64.834Z" stroke="#3F4FB4" stroke-width="1.33333" stroke-miterlimit="10" stroke-linecap="round" stroke-linejoin="round"/>
<path d="M668 46.0014L597.829 46.0014L537.196 106.635L428.496 106.635" stroke="#3F4FB4" stroke-width="1.33333" stroke-miterlimit="10" stroke-linecap="round" stroke-linejoin="round"/>
<path d="M422.492 112.639C419.176 112.639 416.486 109.951 416.486 106.635C416.486 103.317 419.176 100.631 422.492 100.631C425.806 100.631 428.496 103.317 428.496 106.635C428.496 109.951 425.806 112.639 422.492 112.639Z" stroke="#3F4FB4" stroke-width="1.33333" stroke-miterlimit="10" stroke-linecap="round" stroke-linejoin="round"/>
<path d="M1.33301 58.8307L114.273 58.8307L138.304 82.8613L243.162 82.8613" stroke="#B4B8EA" stroke-miterlimit="10" stroke-linecap="round" stroke-linejoin="round"/>
<path d="M1.33306 6L171.606 6" stroke="#B4B8EA" stroke-miterlimit="10" stroke-linecap="round" stroke-linejoin="round"/>
<path d="M668 98.9258C668 98.4444 600.052 98.9258 600.052 98.9258L559.929 58.8058L447.153 58.8058" stroke="#B4B8EA" stroke-miterlimit="10" stroke-linecap="round" stroke-linejoin="round"/>
<path d="M510.672 52.8301V64.8301H505.338V52.8301H510.672Z" fill="#B4B8EA"/>
<path d="M491.116 52.8301V64.8301H485.782V52.8301H491.116Z" fill="#B4B8EA"/>
<path d="M88.9478 52.8301V64.8301H83.6144V52.8301H88.9478Z" fill="#B4B8EA"/>
<path d="M79.1704 52.8301V64.8301H73.8371V52.8301H79.1704Z" fill="#B4B8EA"/>
<path d="M131.948 -9.53674e-07V12H126.614V-9.53674e-07H131.948Z" fill="#B4B8EA"/>
<path d="M112.393 -9.53674e-07V12H107.06V-9.53674e-07H112.393Z" fill="#B4B8EA"/>
<path d="M645.802 92.9258V104.926H640.469V92.9258H645.802Z" fill="#B4B8EA"/>
<path d="M626.248 92.9258V104.926H620.914V92.9258H626.248Z" fill="#B4B8EA"/>
<path d="M244.888 86.9629C242.621 86.9629 240.785 85.1256 240.785 82.8602C240.785 80.5936 242.621 78.7562 244.888 78.7562C247.153 78.7562 248.99 80.5936 248.99 82.8602C248.99 85.1256 247.153 86.9629 244.888 86.9629Z" fill="#B4B8EA"/>
<path d="M256.554 85.3828C255.161 85.3828 254.03 84.2522 254.03 82.8602C254.03 81.4655 255.161 80.3361 256.554 80.3361C257.948 80.3361 259.077 81.4655 259.077 82.8602C259.077 84.2522 257.948 85.3828 256.554 85.3828Z" fill="#B4B8EA"/>
<path d="M265.665 85.3828C264.272 85.3828 263.142 84.2522 263.142 82.8602C263.142 81.4655 264.272 80.3361 265.665 80.3361C267.06 80.3361 268.189 81.4655 268.189 82.8602C268.189 84.2522 267.06 85.3828 265.665 85.3828Z" fill="#B4B8EA"/>
<path d="M168.524 10.1035C166.258 10.1035 164.421 8.26618 164.421 6.00085C164.421 3.73551 166.258 1.89818 168.524 1.89818C170.789 1.89818 172.625 3.73551 172.625 6.00085C172.625 8.26618 170.789 10.1035 168.524 10.1035Z" fill="#B4B8EA"/>
<path d="M180.19 8.52539C178.796 8.52539 177.666 7.3947 177.666 6.00137C177.666 4.60803 178.796 3.47734 180.19 3.47734C181.584 3.47734 182.713 4.60803 182.713 6.00137C182.713 7.3947 181.584 8.52539 180.19 8.52539Z" fill="#B4B8EA"/>
<path d="M189.301 8.52539C187.908 8.52539 186.777 7.3947 186.777 6.00137C186.777 4.60803 187.908 3.47734 189.301 3.47734C190.694 3.47734 191.824 4.60803 191.824 6.00137C191.824 7.3947 190.694 8.52539 189.301 8.52539Z" fill="#B4B8EA"/>
<path d="M198.412 8.52539C197.018 8.52539 195.889 7.3947 195.889 6.00137C195.889 4.60803 197.018 3.47734 198.412 3.47734C199.806 3.47734 200.936 4.60803 200.936 6.00137C200.936 7.3947 199.806 8.52539 198.412 8.52539Z" fill="#B4B8EA"/>
<path d="M447.705 54.7283C449.972 54.7283 451.808 56.5656 451.808 58.8309C451.808 61.0963 449.972 62.9336 447.705 62.9336C445.44 62.9336 443.604 61.0963 443.604 58.8309C443.604 56.5656 445.44 54.7283 447.705 54.7283Z" fill="#B4B8EA"/>
<path d="M436.038 56.3068C437.433 56.3068 438.562 57.4349 438.562 58.8296C438.562 60.2229 437.433 61.3535 436.038 61.3535C434.645 61.3535 433.515 60.2229 433.515 58.8296C433.515 57.4349 434.645 56.3068 436.038 56.3068Z" fill="#B4B8EA"/>
<path d="M417.817 56.3068C419.21 56.3068 420.341 57.4349 420.341 58.8296C420.341 60.2229 419.21 61.3535 417.817 61.3535C416.422 61.3535 415.293 60.2229 415.293 58.8296C415.293 57.4349 416.422 56.3068 417.817 56.3068Z" fill="#B4B8EA"/>
<path d="M496.013 16.2227L559.149 16.2227" stroke="#87E8DE" stroke-width="1.33333" stroke-miterlimit="10" stroke-dasharray="4 4"/>
<path d="M437.857 102.475L500.993 102.475" stroke="#87E8DE" stroke-width="1.33333" stroke-miterlimit="10" stroke-dasharray="4 4"/>
<path d="M182.713 54.7266L245.849 54.7266" stroke="#87E8DE" stroke-width="1.33333" stroke-miterlimit="10" stroke-dasharray="4 4"/>
<path d="M376.985 28.9386C393.494 28.9386 406.877 42.3213 406.877 58.8307C406.877 75.34 393.494 88.7227 376.985 88.7227C360.476 88.7227 347.093 75.34 347.093 58.8307C347.093 42.3213 360.476 28.9386 376.985 28.9386Z" stroke="#87E8DE" stroke-width="0.333333" stroke-miterlimit="10" stroke-dasharray="2.78 2.78"/>
<path d="M538.013 82.5342C551.772 82.5342 562.925 93.6875 562.925 107.445C562.925 121.202 551.772 132.355 538.013 132.355C524.257 132.355 513.104 121.202 513.104 107.445C513.104 93.6875 524.257 82.5342 538.013 82.5342Z" stroke="#87E8DE" stroke-width="0.333333" stroke-miterlimit="10" stroke-dasharray="2.32 2.32"/>
<path d="M45.4783 33.0661C47.6917 33.0661 49.4863 34.8607 49.4863 37.074C49.4863 39.2874 47.6917 41.082 45.4783 41.082C43.265 41.082 41.4689 39.2874 41.4689 37.074C41.4689 34.8607 43.265 33.0661 45.4783 33.0661Z" fill="#87E8DE"/>
<path d="M33.2811 33.0661C35.4957 33.0661 37.2891 34.8607 37.2891 37.074C37.2891 39.2874 35.4957 41.082 33.2811 41.082C31.0677 41.082 29.273 39.2874 29.273 37.074C29.273 34.8607 31.0677 33.0661 33.2811 33.0661Z" fill="#87E8DE"/>
<path d="M562.342 33.0661C564.555 33.0661 566.349 34.8607 566.349 37.074C566.349 39.2874 564.555 41.082 562.342 41.082C560.127 41.082 558.334 39.2874 558.334 37.074C558.334 34.8607 560.127 33.0661 562.342 33.0661Z" fill="#87E8DE"/>
<path d="M550.145 33.0661C552.358 33.0661 554.153 34.8607 554.153 37.074C554.153 39.2874 552.358 41.082 550.145 41.082C547.932 41.082 546.137 39.2874 546.137 37.074C546.137 34.8607 547.932 33.0661 550.145 33.0661Z" fill="#87E8DE"/>
<path d="M537.949 33.0661C540.162 33.0661 541.956 34.8607 541.956 37.074C541.956 39.2874 540.162 41.082 537.949 41.082C535.734 41.082 533.941 39.2874 533.941 37.074C533.941 34.8607 535.734 33.0661 537.949 33.0661Z" fill="#87E8DE"/>
<path d="M652.915 118.513C655.128 118.513 656.922 120.308 656.922 122.523C656.922 124.736 655.128 126.529 652.915 126.529C650.701 126.529 648.906 124.736 648.906 122.523C648.906 120.308 650.701 118.513 652.915 118.513Z" fill="#87E8DE"/>
<path d="M640.718 118.513C642.932 118.513 644.726 120.308 644.726 122.523C644.726 124.736 642.932 126.529 640.718 126.529C638.505 126.529 636.71 124.736 636.71 122.523C636.71 120.308 638.505 118.513 640.718 118.513Z" fill="#87E8DE"/>
<path d="M628.521 118.513C630.734 118.513 632.529 120.308 632.529 122.523C632.529 124.736 630.734 126.529 628.521 126.529C626.308 126.529 624.513 124.736 624.513 122.523C624.513 120.308 626.308 118.513 628.521 118.513Z" fill="#87E8DE"/>
<path d="M652.915 33.0661C655.128 33.0661 656.922 34.8607 656.922 37.074C656.922 39.2874 655.128 41.082 652.915 41.082C650.701 41.082 648.906 39.2874 648.906 37.074C648.906 34.8607 650.701 33.0661 652.915 33.0661Z" fill="#87E8DE"/>
<path d="M640.718 33.0661C642.932 33.0661 644.726 34.8607 644.726 37.074C644.726 39.2874 642.932 41.082 640.718 41.082C638.505 41.082 636.71 39.2874 636.71 37.074C636.71 34.8607 638.505 33.0661 640.718 33.0661Z" fill="#87E8DE"/>
<path d="M628.521 33.0661C630.734 33.0661 632.529 34.8607 632.529 37.074C632.529 39.2874 630.734 41.082 628.521 41.082C626.308 41.082 624.513 39.2874 624.513 37.074C624.513 34.8607 626.308 33.0661 628.521 33.0661Z" fill="#87E8DE"/>
<path d="M577.597 102.715L568.178 93.2975" stroke="#87E8DE" stroke-width="0.666667" stroke-miterlimit="10"/>
<path d="M582.686 102.715L573.269 93.2975" stroke="#87E8DE" stroke-width="0.666667" stroke-miterlimit="10"/>
<path d="M587.775 102.715L578.357 93.2975" stroke="#87E8DE" stroke-width="0.666667" stroke-miterlimit="10"/>
<path d="M592.865 102.715L583.448 93.2975" stroke="#87E8DE" stroke-width="0.666667" stroke-miterlimit="10"/>
<path d="M447.276 33.6465L437.857 24.2292" stroke="#87E8DE" stroke-width="0.666667" stroke-miterlimit="10"/>
<path d="M452.365 33.6465L442.946 24.2292" stroke="#87E8DE" stroke-width="0.666667" stroke-miterlimit="10"/>
<path d="M457.454 33.6465L448.036 24.2292" stroke="#87E8DE" stroke-width="0.666667" stroke-miterlimit="10"/>
<path d="M462.544 33.6465L453.124 24.2292" stroke="#87E8DE" stroke-width="0.666667" stroke-miterlimit="10"/>
<path d="M317.032 23.2559L307.613 13.8385" stroke="#87E8DE" stroke-width="0.666667" stroke-miterlimit="10"/>
<path d="M322.121 23.2559L312.702 13.8385" stroke="#87E8DE" stroke-width="0.666667" stroke-miterlimit="10"/>
<path d="M327.209 23.2559L317.79 13.8385" stroke="#87E8DE" stroke-width="0.666667" stroke-miterlimit="10"/>
<path d="M332.298 23.2559L322.88 13.8385" stroke="#87E8DE" stroke-width="0.666667" stroke-miterlimit="10"/>
<path d="M142.161 75.5547L132.744 66.1374" stroke="#87E8DE" stroke-width="0.666667" stroke-miterlimit="10"/>
<path d="M147.25 75.5547L137.833 66.1374" stroke="#87E8DE" stroke-width="0.666667" stroke-miterlimit="10"/>
<path d="M152.34 75.5547L142.922 66.1374" stroke="#87E8DE" stroke-width="0.666667" stroke-miterlimit="10"/>
<path d="M157.429 75.5547L148.011 66.1374" stroke="#87E8DE" stroke-width="0.666667" stroke-miterlimit="10"/>
</g>
</svg>
