<svg width="224" height="298" viewBox="0 0 224 298" fill="none" xmlns="http://www.w3.org/2000/svg">
<g opacity="0.25">
<path d="M196.428 203.281C196.428 198.878 199.997 195.311 204.398 195.311C208.8 195.311 212.368 198.878 212.368 203.281C212.368 207.682 208.8 211.251 204.398 211.251C199.997 211.251 196.428 207.682 196.428 203.281Z" fill="#3F4FB4"/>
<path d="M200.902 227.211C200.902 225.28 202.468 223.715 204.398 223.715C206.329 223.715 207.894 225.28 207.894 227.211C207.894 229.142 206.329 230.708 204.398 230.708C202.468 230.708 200.902 229.142 200.902 227.211Z" fill="#3F4FB4"/>
<path d="M200.902 243.588C200.902 241.657 202.468 240.092 204.398 240.092C206.329 240.092 207.894 241.657 207.894 243.588C207.894 245.519 206.329 247.084 204.398 247.084C202.468 247.084 200.902 245.519 200.902 243.588Z" fill="#3F4FB4"/>
<path d="M8.71875 33.672C8.71875 29.2694 12.287 25.7014 16.6886 25.7014C21.0902 25.7014 24.6589 29.2694 24.6589 33.672C24.6589 38.072 21.0902 41.6414 16.6886 41.6414C12.287 41.6414 8.71875 38.072 8.71875 33.672Z" fill="#3F4FB4"/>
<path d="M13.1914 57.6026C13.1914 55.672 14.7565 54.1053 16.6873 54.1053C18.6185 54.1053 20.1841 55.672 20.1841 57.6026C20.1841 59.5333 18.6185 61.0986 16.6873 61.0986C14.7565 61.0986 13.1914 59.5333 13.1914 57.6026Z" fill="#3F4FB4"/>
<path d="M13.1914 73.9787C13.1914 72.0481 14.7565 70.4827 16.6873 70.4827C18.6185 70.4827 20.1841 72.0481 20.1841 73.9787C20.1841 75.9094 18.6185 77.4761 16.6873 77.4761C14.7565 77.4761 13.1914 75.9094 13.1914 73.9787Z" fill="#3F4FB4"/>
<path d="M82.8984 235.948C82.8984 231.545 86.4667 227.977 90.8683 227.977C95.2698 227.977 98.8386 231.545 98.8386 235.948C98.8386 240.349 95.2698 243.917 90.8683 243.917C86.4667 243.917 82.8984 240.349 82.8984 235.948Z" fill="#3F4FB4"/>
<path d="M87.3711 259.877C87.3711 257.947 88.9362 256.382 90.867 256.382C92.7982 256.382 94.3638 257.947 94.3638 259.877C94.3638 261.808 92.7982 263.375 90.867 263.375C88.9362 263.375 87.3711 261.808 87.3711 259.877Z" fill="#3F4FB4"/>
<path d="M87.3711 276.254C87.3711 274.324 88.9362 272.759 90.867 272.759C92.7982 272.759 94.3638 274.324 94.3638 276.254C94.3638 278.185 92.7982 279.751 90.867 279.751C88.9362 279.751 87.3711 278.185 87.3711 276.254Z" fill="#3F4FB4"/>
<path d="M72.5766 296.505V207.929L16.6875 152.041V13.5052" stroke="#3F4FB4" stroke-width="1.33333" stroke-miterlimit="10" stroke-linecap="round" stroke-linejoin="round"/>
<path d="M10.6836 7.50137C10.6836 4.18403 13.3716 1.49736 16.6872 1.49736C20.0039 1.49736 22.6919 4.18403 22.6919 7.50137C22.6919 10.8174 20.0039 13.5054 16.6872 13.5054C13.3716 13.5054 10.6836 10.8174 10.6836 7.50137Z" stroke="#3F4FB4" stroke-width="1.33333" stroke-miterlimit="10" stroke-linecap="round" stroke-linejoin="round"/>
<path d="M124.74 296.505V220.801L74.6094 170.671V71.0866" stroke="#3F4FB4" stroke-width="1.33333" stroke-miterlimit="10" stroke-linecap="round" stroke-linejoin="round"/>
<path d="M68.6055 65.0827C68.6055 61.7667 71.2945 59.0787 74.6101 59.0787C77.9257 59.0787 80.6148 61.7667 80.6148 65.0827C80.6148 68.4 77.9257 71.0867 74.6101 71.0867C71.2945 71.0867 68.6055 68.4 68.6055 65.0827Z" stroke="#3F4FB4" stroke-width="1.33333" stroke-miterlimit="10" stroke-linecap="round" stroke-linejoin="round"/>
<path d="M90.8672 296.505V235.027L131.514 194.381V73.7959" stroke="#3F4FB4" stroke-width="1.33333" stroke-miterlimit="10" stroke-linecap="round" stroke-linejoin="round"/>
<path d="M125.51 67.7932C125.51 64.4759 128.198 61.7892 131.515 61.7892C134.831 61.7892 137.519 64.4759 137.519 67.7932C137.519 71.1092 134.831 73.7959 131.515 73.7959C128.198 73.7959 125.51 71.1092 125.51 67.7932Z" stroke="#3F4FB4" stroke-width="1.33333" stroke-miterlimit="10" stroke-linecap="round" stroke-linejoin="round"/>
<path d="M154.609 296.505V253.001L204.399 203.212V87.6679" stroke="#3F4FB4" stroke-width="1.33333" stroke-miterlimit="10" stroke-linecap="round" stroke-linejoin="round"/>
<path d="M198.395 81.664C198.395 78.348 201.083 75.6586 204.399 75.6586C207.715 75.6586 210.403 78.348 210.403 81.664C210.403 84.9786 207.715 87.668 204.399 87.668C201.083 87.668 198.395 84.9786 198.395 81.664Z" stroke="#3F4FB4" stroke-width="1.33333" stroke-miterlimit="10" stroke-linecap="round" stroke-linejoin="round"/>
<path d="M10.0117 296.505V248.112L36.5331 221.59V101.445" stroke="#B4B8EA" stroke-miterlimit="10" stroke-linecap="round" stroke-linejoin="round"/>
<path d="M179.505 296.505V198.975L158.666 178.136V114.724" stroke="#B4B8EA" stroke-miterlimit="10" stroke-linecap="round" stroke-linejoin="round"/>
<path d="M185.275 281.668H173.275V276.335H185.275V281.668Z" fill="#B4B8EA"/>
<path d="M185.275 262.112H173.275V256.778H185.275V262.112Z" fill="#B4B8EA"/>
<path d="M162.767 112.085C162.767 114.351 160.93 116.188 158.665 116.188C156.398 116.188 154.561 114.351 154.561 112.085C154.561 109.82 156.398 107.983 158.665 107.983C160.93 107.983 162.767 109.82 162.767 112.085Z" fill="#B4B8EA"/>
<path d="M161.187 100.419C161.187 101.812 160.058 102.943 158.665 102.943C157.27 102.943 156.141 101.812 156.141 100.419C156.141 99.024 157.27 97.8959 158.665 97.8959C160.058 97.8959 161.187 99.024 161.187 100.419Z" fill="#B4B8EA"/>
<path d="M161.187 82.196C161.187 83.5893 160.058 84.72 158.665 84.72C157.27 84.72 156.141 83.5893 156.141 82.196C156.141 80.8026 157.27 79.6733 158.665 79.6733C160.058 79.6733 161.187 80.8026 161.187 82.196Z" fill="#B4B8EA"/>
<path d="M40.6349 99.1466C40.6349 101.413 38.7985 103.249 36.5329 103.249C34.2668 103.249 32.4297 101.413 32.4297 99.1466C32.4297 96.8813 34.2668 95.0453 36.5329 95.0453C38.7985 95.0453 40.6349 96.8813 40.6349 99.1466Z" fill="#B4B8EA"/>
<path d="M39.0566 69.2587C39.0566 70.6521 37.9264 71.7827 36.5332 71.7827C35.1395 71.7827 34.0098 70.6521 34.0098 69.2587C34.0098 67.8641 35.1395 66.7361 36.5332 66.7361C37.9264 66.7361 39.0566 67.8641 39.0566 69.2587Z" fill="#B4B8EA"/>
<path d="M78.6094 77.1521V140.288" stroke="#87E8DE" stroke-width="1.33333" stroke-miterlimit="10" stroke-dasharray="4 4"/>
<path d="M12.832 102.276V165.411" stroke="#87E8DE" stroke-width="1.33333" stroke-miterlimit="10" stroke-dasharray="4 4"/>
<path d="M150.609 217.852V280.988" stroke="#87E8DE" stroke-width="1.33333" stroke-miterlimit="10" stroke-dasharray="4 4"/>
<path d="M127.447 117.407V180.542" stroke="#87E8DE" stroke-width="1.33333" stroke-miterlimit="10" stroke-dasharray="4 4"/>
<path d="M68.6055 212.729V275.863" stroke="#87E8DE" stroke-width="1.33333" stroke-miterlimit="10" stroke-dasharray="4 4"/>
<path d="M164.84 234.016C164.84 236.23 163.046 238.023 160.832 238.023C158.618 238.023 156.824 236.23 156.824 234.016C156.824 231.801 158.618 230.008 160.832 230.008C163.046 230.008 164.84 231.801 164.84 234.016Z" fill="#87E8DE"/>
<path d="M164.84 221.819C164.84 224.032 163.046 225.827 160.832 225.827C158.618 225.827 156.824 224.032 156.824 221.819C156.824 219.606 158.618 217.811 160.832 217.811C163.046 217.811 164.84 219.606 164.84 221.819Z" fill="#87E8DE"/>
<path d="M164.84 209.623C164.84 211.836 163.046 213.629 160.832 213.629C158.618 213.629 156.824 211.836 156.824 209.623C156.824 207.408 158.618 205.614 160.832 205.614C163.046 205.614 164.84 207.408 164.84 209.623Z" fill="#87E8DE"/>
<path d="M120.173 197.961C120.173 200.176 118.378 201.969 116.164 201.969C113.951 201.969 112.156 200.176 112.156 197.961C112.156 195.748 113.951 193.953 116.164 193.953C118.378 193.953 120.173 195.748 120.173 197.961Z" fill="#87E8DE"/>
<path d="M120.173 185.765C120.173 187.978 118.378 189.773 116.164 189.773C113.951 189.773 112.156 187.978 112.156 185.765C112.156 183.552 113.951 181.756 116.164 181.756C118.378 181.756 120.173 183.552 120.173 185.765Z" fill="#87E8DE"/>
<path d="M120.173 173.569C120.173 175.783 118.378 177.576 116.164 177.576C113.951 177.576 112.156 175.783 112.156 173.569C112.156 171.354 113.951 169.56 116.164 169.56C118.378 169.56 120.173 171.354 120.173 173.569Z" fill="#87E8DE"/>
<path d="M40.5401 266.424C40.5401 268.637 38.7458 270.432 36.5324 270.432C34.3188 270.432 32.5234 268.637 32.5234 266.424C32.5234 264.211 34.3188 262.416 36.5324 262.416C38.7458 262.416 40.5401 264.211 40.5401 266.424Z" fill="#87E8DE"/>
<path d="M40.5401 254.228C40.5401 256.442 38.7458 258.236 36.5324 258.236C34.3188 258.236 32.5234 256.442 32.5234 254.228C32.5234 252.015 34.3188 250.22 36.5324 250.22C38.7458 250.22 40.5401 252.015 40.5401 254.228Z" fill="#87E8DE"/>
<path d="M40.5401 242.031C40.5401 244.244 38.7458 246.039 36.5324 246.039C34.3188 246.039 32.5234 244.244 32.5234 242.031C32.5234 239.817 34.3188 238.023 36.5324 238.023C38.7458 238.023 40.5401 239.817 40.5401 242.031Z" fill="#87E8DE"/>
<path d="M49.7296 140.647C49.7296 142.86 47.9353 144.655 45.7217 144.655C43.5081 144.655 41.7129 142.86 41.7129 140.647C41.7129 138.433 43.5081 136.639 45.7217 136.639C47.9353 136.639 49.7296 138.433 49.7296 140.647Z" fill="#87E8DE"/>
<path d="M49.7296 128.451C49.7296 130.664 47.9353 132.459 45.7217 132.459C43.5081 132.459 41.7129 130.664 41.7129 128.451C41.7129 126.237 43.5081 124.443 45.7217 124.443C47.9353 124.443 49.7296 126.237 49.7296 128.451Z" fill="#87E8DE"/>
<path d="M49.7296 116.253C49.7296 118.467 47.9353 120.261 45.7217 120.261C43.5081 120.261 41.7129 118.467 41.7129 116.253C41.7129 114.04 43.5081 112.245 45.7217 112.245C47.9353 112.245 49.7296 114.04 49.7296 116.253Z" fill="#87E8DE"/>
<path d="M8.0156 79.9893C8.0156 82.2027 6.22133 83.9973 4.00773 83.9973C1.79427 83.9973 0 82.2027 0 79.9893C0 77.776 1.79427 75.9813 4.00773 75.9813C6.22133 75.9813 8.0156 77.776 8.0156 79.9893Z" fill="#87E8DE"/>
<path d="M8.0156 67.7934C8.0156 70.0067 6.22133 71.8 4.00773 71.8C1.79427 71.8 0 70.0067 0 67.7934C0 65.5787 1.79427 63.7854 4.00773 63.7854C6.22133 63.7854 8.0156 65.5787 8.0156 67.7934Z" fill="#87E8DE"/>
<path d="M8.0156 55.596C8.0156 57.8093 6.22133 59.604 4.00773 59.604C1.79427 59.604 0 57.8093 0 55.596C0 53.3827 1.79427 51.588 4.00773 51.588C6.22133 51.588 8.0156 53.3827 8.0156 55.596Z" fill="#87E8DE"/>
<path d="M223.521 143.641C223.521 154.204 214.959 162.765 204.398 162.765C193.837 162.765 185.275 154.204 185.275 143.641C185.275 133.08 193.837 124.519 204.398 124.519C214.959 124.519 223.521 133.08 223.521 143.641Z" stroke="#87E8DE" stroke-width="0.333333" stroke-miterlimit="10" stroke-dasharray="1.78 1.78"/>
<path d="M66.425 179.696C66.425 196.205 53.0417 209.589 36.5334 209.589C20.024 209.589 6.64062 196.205 6.64062 179.696C6.64062 163.188 20.024 149.804 36.5334 149.804C53.0417 149.804 66.425 163.188 66.425 179.696Z" stroke="#87E8DE" stroke-width="0.333333" stroke-miterlimit="10" stroke-dasharray="2.78 2.78"/>
<path d="M83.8789 153.163L93.2976 143.743" stroke="#87E8DE" stroke-width="0.666667" stroke-miterlimit="10"/>
<path d="M83.8789 158.251L93.2976 148.833" stroke="#87E8DE" stroke-width="0.666667" stroke-miterlimit="10"/>
<path d="M83.8789 163.341L93.2976 153.921" stroke="#87E8DE" stroke-width="0.666667" stroke-miterlimit="10"/>
<path d="M83.8789 168.429L93.2976 159.012" stroke="#87E8DE" stroke-width="0.666667" stroke-miterlimit="10"/>
</g>
</svg>
