<svg width="205" height="348" viewBox="0 0 205 348" fill="none" xmlns="http://www.w3.org/2000/svg">
<g opacity="0.25">
<path d="M178.693 159.102C178.693 163.504 175.125 167.072 170.723 167.072C166.321 167.072 162.752 163.504 162.752 159.102C162.752 154.7 166.321 151.132 170.723 151.132C175.125 151.132 178.693 154.7 178.693 159.102Z" fill="#3F4FB4"/>
<path d="M174.22 135.171C174.22 137.102 172.653 138.667 170.723 138.667C168.792 138.667 167.227 137.102 167.227 135.171C167.227 133.24 168.792 131.674 170.723 131.674C172.653 131.674 174.22 133.24 174.22 135.171Z" fill="#3F4FB4"/>
<path d="M174.22 118.794C174.22 120.724 172.653 122.291 170.723 122.291C168.792 122.291 167.227 120.724 167.227 118.794C167.227 116.862 168.792 115.298 170.723 115.298C172.653 115.298 174.22 116.862 174.22 118.794Z" fill="#3F4FB4"/>
<path d="M51.6315 142.948C51.6315 147.35 48.0633 150.917 43.6618 150.917C39.2597 150.917 35.6914 147.35 35.6914 142.948C35.6914 138.546 39.2597 134.978 43.6618 134.978C48.0633 134.978 51.6315 138.546 51.6315 142.948Z" fill="#3F4FB4"/>
<path d="M47.1567 119.016C47.1567 120.948 45.5917 122.512 43.661 122.512C41.7297 122.512 40.1641 120.948 40.1641 119.016C40.1641 117.086 41.7297 115.52 43.661 115.52C45.5917 115.52 47.1567 117.086 47.1567 119.016Z" fill="#3F4FB4"/>
<path d="M47.1567 102.639C47.1567 104.57 45.5917 106.136 43.661 106.136C41.7297 106.136 40.1641 104.57 40.1641 102.639C40.1641 100.708 41.7297 99.1429 43.661 99.1429C45.5917 99.1429 47.1567 100.708 47.1567 102.639Z" fill="#3F4FB4"/>
<path d="M17.9811 318.585C17.9811 322.987 14.4129 326.556 10.0114 326.556C5.60928 326.556 2.04102 322.987 2.04102 318.585C2.04102 314.184 5.60928 310.616 10.0114 310.616C14.4129 310.616 17.9811 314.184 17.9811 318.585Z" fill="#3F4FB4"/>
<path d="M13.5083 294.655C13.5083 296.586 11.9427 298.151 10.012 298.151C8.08069 298.151 6.51562 296.586 6.51563 294.655C6.51563 292.724 8.08069 291.158 10.012 291.158C11.9427 291.158 13.5083 292.724 13.5083 294.655Z" fill="#3F4FB4"/>
<path d="M13.5083 278.277C13.5083 280.208 11.9427 281.773 10.012 281.773C8.08069 281.773 6.51562 280.208 6.51563 278.277C6.51563 276.347 8.08069 274.781 10.012 274.781C11.9427 274.781 13.5083 276.347 13.5083 278.277Z" fill="#3F4FB4"/>
<path d="M43.6606 1.33752L43.6606 144.175L10.0117 177.823L10.0117 334.671" stroke="#3F4FB4" stroke-width="1.33333" stroke-miterlimit="10" stroke-linecap="round" stroke-linejoin="round"/>
<path d="M4.00781 340.676C4.00781 337.359 6.69581 334.671 10.0121 334.671C13.3282 334.671 16.0162 337.359 16.0162 340.676C16.0162 343.991 13.3282 346.68 10.0121 346.68C6.69581 346.68 4.00781 343.991 4.00781 340.676Z" stroke="#3F4FB4" stroke-width="1.33333" stroke-miterlimit="10" stroke-linecap="round" stroke-linejoin="round"/>
<path d="M16.6875 1.33752L16.6875 67.1669L70.6323 121.111L70.6323 287.012" stroke="#3F4FB4" stroke-width="1.33333" stroke-miterlimit="10" stroke-linecap="round" stroke-linejoin="round"/>
<path d="M64.6289 293.016C64.6289 289.7 67.3174 287.012 70.6336 287.012C73.9492 287.012 76.6372 289.7 76.6372 293.016C76.6372 296.332 73.9492 299.02 70.6336 299.02C67.3174 299.02 64.6289 296.332 64.6289 293.016Z" stroke="#3F4FB4" stroke-width="1.33333" stroke-miterlimit="10" stroke-linecap="round" stroke-linejoin="round"/>
<path d="M124.74 1.33764L124.74 72.5003L170.723 118.483V179.167" stroke="#3F4FB4" stroke-width="1.33333" stroke-miterlimit="10" stroke-linecap="round" stroke-linejoin="round"/>
<path d="M164.719 185.171C164.719 181.855 167.407 179.167 170.723 179.167C174.039 179.167 176.727 181.855 176.727 185.171C176.727 188.487 174.039 191.175 170.723 191.175C167.407 191.175 164.719 188.487 164.719 185.171Z" stroke="#3F4FB4" stroke-width="1.33333" stroke-miterlimit="10" stroke-linecap="round" stroke-linejoin="round"/>
<path d="M76.6367 1.33746L76.6367 51.1668L107.699 82.2282L107.699 137.833" stroke="#B4B8EA" stroke-miterlimit="10" stroke-linecap="round" stroke-linejoin="round"/>
<path d="M31.498 1.33719L31.498 254.721" stroke="#B4B8EA" stroke-miterlimit="10" stroke-linecap="round" stroke-linejoin="round"/>
<path d="M152.831 1.33729L152.831 128.029L129.535 151.327V218.495" stroke="#B4B8EA" stroke-miterlimit="10" stroke-linecap="round" stroke-linejoin="round"/>
<path d="M198.166 1.33746L198.166 113.388" stroke="#B4B8EA" stroke-miterlimit="10" stroke-linecap="round" stroke-linejoin="round"/>
<path d="M37.498 211.62H25.498V206.287H37.498V211.62Z" fill="#B4B8EA"/>
<path d="M37.498 192.064H25.498V186.731H37.498V192.064Z" fill="#B4B8EA"/>
<path d="M82.6367 35.9521H70.6367V30.6188H82.6367V35.9521Z" fill="#B4B8EA"/>
<path d="M82.6367 16.3975L70.6367 16.3975V11.0641L82.6367 11.0641V16.3975Z" fill="#B4B8EA"/>
<path d="M158.831 60.0293H146.83V54.696H158.831V60.0293Z" fill="#B4B8EA"/>
<path d="M158.831 50.252H146.83V44.9186H158.831V50.252Z" fill="#B4B8EA"/>
<path d="M204.166 86.4736H192.166V81.1403H204.166V86.4736Z" fill="#B4B8EA"/>
<path d="M204.166 66.9189H192.166V61.5856H204.166V66.9189Z" fill="#B4B8EA"/>
<path d="M194.062 115.297C194.062 113.031 195.899 111.195 198.165 111.195C200.431 111.195 202.268 113.031 202.268 115.297C202.268 117.563 200.431 119.4 198.165 119.4C195.899 119.4 194.062 117.563 194.062 115.297Z" fill="#B4B8EA"/>
<path d="M103.596 140.012C103.596 137.745 105.433 135.909 107.698 135.909C109.964 135.909 111.801 137.745 111.801 140.012C111.801 142.277 109.964 144.115 107.698 144.115C105.433 144.115 103.596 142.277 103.596 140.012Z" fill="#B4B8EA"/>
<path d="M105.176 160.789C105.176 159.396 106.306 158.265 107.699 158.265C109.093 158.265 110.223 159.396 110.223 160.789C110.223 162.183 109.093 163.313 107.699 163.313C106.306 163.313 105.176 162.183 105.176 160.789Z" fill="#B4B8EA"/>
<path d="M105.176 169.9C105.176 168.507 106.306 167.376 107.699 167.376C109.093 167.376 110.223 168.507 110.223 169.9C110.223 171.294 109.093 172.424 107.699 172.424C106.306 172.424 105.176 171.294 105.176 169.9Z" fill="#B4B8EA"/>
<path d="M125.432 220.012C125.432 217.745 127.269 215.909 129.534 215.909C131.801 215.909 133.637 217.745 133.637 220.012C133.637 222.277 131.801 224.115 129.534 224.115C127.269 224.115 125.432 222.277 125.432 220.012Z" fill="#B4B8EA"/>
<path d="M127.01 249.9C127.01 248.507 128.14 247.376 129.534 247.376C130.927 247.376 132.056 248.507 132.056 249.9C132.056 251.294 130.927 252.424 129.534 252.424C128.14 252.424 127.01 251.294 127.01 249.9Z" fill="#B4B8EA"/>
<path d="M27.3965 256.527C27.3965 254.261 29.233 252.424 31.4986 252.424C33.7647 252.424 35.6018 254.261 35.6018 256.527C35.6018 258.792 33.7647 260.629 31.4986 260.629C29.233 260.629 27.3965 258.792 27.3965 256.527Z" fill="#B4B8EA"/>
<path d="M28.9746 268.194C28.9746 266.8 30.1049 265.67 31.4981 265.67C32.8918 265.67 34.0215 266.8 34.0215 268.194C34.0215 269.587 32.8918 270.716 31.4981 270.716C30.1049 270.716 28.9746 269.587 28.9746 268.194Z" fill="#B4B8EA"/>
<path d="M28.9746 277.304C28.9746 275.911 30.1049 274.781 31.4981 274.781C32.8918 274.781 34.0215 275.911 34.0215 277.304C34.0215 278.697 32.8918 279.828 31.4981 279.828C30.1049 279.828 28.9746 278.697 28.9746 277.304Z" fill="#B4B8EA"/>
<path d="M120.387 7.05238L120.387 70.187" stroke="#87E8DE" stroke-width="1.33333" stroke-miterlimit="10" stroke-dasharray="4 4"/>
<path d="M64.6289 131.71L64.6289 194.846" stroke="#87E8DE" stroke-width="1.33333" stroke-miterlimit="10" stroke-dasharray="4 4"/>
<path d="M5.3418 200.904L5.3418 264.04" stroke="#87E8DE" stroke-width="1.33333" stroke-miterlimit="10" stroke-dasharray="4 4"/>
<path d="M200.614 185.207C200.614 201.715 187.231 215.098 170.722 215.098C154.214 215.098 140.83 201.715 140.83 185.207C140.83 168.698 154.214 155.315 170.722 155.315C187.231 155.315 200.614 168.698 200.614 185.207Z" stroke="#87E8DE" stroke-width="0.333333" stroke-miterlimit="10" stroke-dasharray="2.78 2.78"/>
<path d="M8.0156 129.039C8.0156 131.252 6.22133 133.045 4.00773 133.045C1.79427 133.045 0 131.252 0 129.039C0 126.824 1.79427 125.031 4.00773 125.031C6.22133 125.031 8.0156 126.824 8.0156 129.039Z" fill="#87E8DE"/>
<path d="M61.1568 51.7015C61.1568 53.9148 59.3621 55.7095 57.1485 55.7095C54.9354 55.7095 53.1406 53.9148 53.1406 51.7015C53.1406 49.4881 54.9354 47.6935 57.1485 47.6935C59.3621 47.6935 61.1568 49.4881 61.1568 51.7015Z" fill="#87E8DE"/>
<path d="M61.1568 39.5056C61.1568 41.7189 59.3621 43.5122 57.1485 43.5122C54.9354 43.5122 53.1406 41.7189 53.1406 39.5056C53.1406 37.2909 54.9354 35.4976 57.1485 35.4976C59.3621 35.4976 61.1568 37.2909 61.1568 39.5056Z" fill="#87E8DE"/>
<path d="M61.1568 27.3079C61.1568 29.5212 59.3621 31.3159 57.1485 31.3159C54.9354 31.3159 53.1406 29.5212 53.1406 27.3079C53.1406 25.0946 54.9354 23.2999 57.1485 23.2999C59.3621 23.2999 61.1568 25.0946 61.1568 27.3079Z" fill="#87E8DE"/>
<path d="M174.731 59.8908C174.731 62.1042 172.936 63.8975 170.723 63.8975C168.51 63.8975 166.715 62.1042 166.715 59.8908C166.715 57.6762 168.51 55.8828 170.723 55.8828C172.936 55.8828 174.731 57.6762 174.731 59.8908Z" fill="#87E8DE"/>
<path d="M174.731 35.4974C174.731 37.7107 172.936 39.5054 170.723 39.5054C168.51 39.5054 166.715 37.7107 166.715 35.4974C166.715 33.2827 168.51 31.4894 170.723 31.4894C172.936 31.4894 174.731 33.2827 174.731 35.4974Z" fill="#87E8DE"/>
<path d="M100.524 293.241C100.524 309.751 87.1413 323.133 70.6325 323.133C54.123 323.133 40.7402 309.751 40.7402 293.241C40.7402 276.733 54.123 263.349 70.6325 263.349C87.1413 263.349 100.524 276.733 100.524 293.241Z" stroke="#87E8DE" stroke-width="0.333333" stroke-miterlimit="10" stroke-dasharray="2.78 2.78"/>
<path d="M0.632812 18.1655L10.0505 8.74684" stroke="#87E8DE" stroke-width="0.666667" stroke-miterlimit="10"/>
<path d="M0.632812 23.2549L10.0505 13.8362" stroke="#87E8DE" stroke-width="0.666667" stroke-miterlimit="10"/>
<path d="M0.632812 28.3428L10.0505 18.9242" stroke="#87E8DE" stroke-width="0.666667" stroke-miterlimit="10"/>
<path d="M0.632812 33.4321L10.0505 24.0147" stroke="#87E8DE" stroke-width="0.666667" stroke-miterlimit="10"/>
</g>
</svg>
