<svg width="54" height="17" viewBox="0 0 54 17" fill="none" xmlns="http://www.w3.org/2000/svg">
<g clip-path="url(#clip0_56_4218)">
<path d="M10.1483 8.87551C10.3235 8.93441 10.5273 9.022 10.7599 9.13828C11.1676 9.37235 11.5165 9.6925 11.8095 10.1002C12.1598 10.6832 12.3335 11.3824 12.3335 12.1978C12.3335 14.9961 10.6421 16.3945 7.2624 16.3945H0.706857C0.53168 16.3945 0.444092 16.3069 0.444092 16.1318V2.6673C0.444092 2.49212 0.53168 2.40454 0.706857 2.40454H7.61427C8.83899 2.40454 9.82814 2.7413 10.5862 3.41029C11.3428 4.0808 11.7234 4.97027 11.7234 6.07721C11.7234 6.71902 11.5769 7.28684 11.2869 7.78217C10.994 8.27901 10.6149 8.64295 10.1483 8.87551ZM7.17632 14.383C8.16698 14.383 8.89487 14.2229 9.3615 13.9028C9.82663 13.5826 10.0607 13.0284 10.0607 12.2416C10.0607 11.4548 9.82663 10.9021 9.3615 10.5805C8.89487 10.2603 8.16547 10.1002 7.17632 10.1002H3.06722C2.83314 10.1002 2.71686 10.1878 2.71686 10.363V14.1233C2.71686 14.2984 2.83314 14.386 3.06722 14.386H7.17632V14.383ZM3.06722 4.41605C2.89204 4.41605 2.80445 4.50364 2.80445 4.67882V7.82596C2.80445 8.00114 2.89204 8.08873 3.06722 8.08873H7.08874C8.60341 8.08873 9.3615 7.47712 9.3615 6.25239C9.3615 5.02766 8.60341 4.41605 7.08874 4.41605H3.06722ZM24.3135 8.87551C24.4886 8.93441 24.6638 9.022 24.8375 9.13828C25.3026 9.37235 25.653 9.6925 25.887 10.1002C26.2948 10.6832 26.4986 11.3824 26.4986 12.1978C26.4986 14.9961 24.8073 16.3945 21.4276 16.3945H14.8705C14.6953 16.3945 14.6078 16.3069 14.6078 16.1318V2.6673C14.6078 2.49212 14.6953 2.40454 14.8705 2.40454H21.7779C22.9438 2.40454 23.9193 2.7413 24.7076 3.41029C25.4944 4.0808 25.8885 4.97027 25.8885 6.07721C25.8885 6.71902 25.7421 7.28684 25.4521 7.78217C25.1576 8.27901 24.7786 8.64295 24.3135 8.87551ZM17.1433 4.41605C16.9681 4.41605 16.8805 4.50364 16.8805 4.67882V7.82596C16.8805 8.00114 16.9681 8.08873 17.1433 8.08873H21.2524C22.7671 8.08873 23.5252 7.47712 23.5252 6.25239C23.5252 5.02766 22.7671 4.41605 21.2524 4.41605H17.1433ZM21.34 14.383C22.3306 14.383 23.0585 14.2229 23.5252 13.9028C23.9903 13.5826 24.2244 13.0284 24.2244 12.2416C24.2244 11.4548 23.9903 10.9021 23.5252 10.5805C23.0585 10.2603 22.3291 10.1002 21.34 10.1002H17.1433C16.9681 10.1002 16.8805 10.1878 16.8805 10.363V14.1233C16.8805 14.2984 16.9681 14.386 17.1433 14.386H21.34V14.383ZM39.0011 2.57971C39.0585 2.46343 39.1174 2.40454 39.1763 2.40454H41.4491C41.5065 2.40454 41.5654 2.43474 41.6243 2.49212C41.6817 2.55102 41.6817 2.60992 41.6243 2.6673L34.368 16.3069C34.3091 16.3658 34.2366 16.3945 34.149 16.3945C34.0615 16.3945 33.9875 16.3658 33.9301 16.3069L26.6738 2.6673C26.6149 2.60992 26.5998 2.55102 26.63 2.49212C26.6587 2.43474 26.7312 2.40454 26.849 2.40454H29.0342C29.1505 2.40454 29.238 2.46343 29.2969 2.57971L33.9301 11.3235C33.9301 11.3824 33.9875 11.411 34.1053 11.411C34.2215 11.411 34.3091 11.3824 34.368 11.3235L39.0011 2.57971ZM41.6243 14.2093C41.5654 14.3271 41.4778 14.3845 41.3615 14.3845H39.0887C39.0298 14.3845 38.986 14.3558 38.9574 14.2969C38.9271 14.2396 38.9136 14.1807 38.9136 14.1218L46.1713 0.48212C46.2287 0.424734 46.3163 0.394531 46.4341 0.394531C46.5504 0.394531 46.638 0.424734 46.6968 0.48212L53.9516 14.1218C53.9516 14.1807 53.9365 14.2396 53.9078 14.2969C53.8776 14.3558 53.8338 14.3845 53.7764 14.3845H51.5036C51.3859 14.3845 51.2983 14.3271 51.2409 14.2093L46.6938 5.4656C46.6349 5.34932 46.5473 5.29043 46.4311 5.29043C46.3133 5.29043 46.2257 5.34932 46.1683 5.4656L41.6243 14.2093Z" fill="#434343"/>
</g>
<defs>
<clipPath id="clip0_56_4218">
<rect width="53.5075" height="16" fill="white" transform="translate(0.444092 0.394531)"/>
</clipPath>
</defs>
</svg>
