<svg width="41" height="41" viewBox="0 0 41 41" fill="none" xmlns="http://www.w3.org/2000/svg">
<path fill-rule="evenodd" clip-rule="evenodd" d="M38.1163 22.791C39.1697 23.1231 39.7544 24.2464 39.4223 25.2998L38.9238 26.8807L38.2561 28.4929L37.4503 30.0406L36.5128 31.5123L35.4505 32.8967L34.2717 34.1832L32.9852 35.362L31.6008 36.4243L30.1291 37.3618L28.6588 38.1272C27.6791 38.6373 26.4713 38.2565 25.9613 37.2767C25.4513 36.297 25.8321 35.0892 26.8118 34.5792L28.1272 33.8944L29.3043 33.1446L30.4116 32.2949L31.4405 31.3521L32.3834 30.3231L33.2331 29.2158L33.9829 28.0387L34.6274 26.8008L35.1615 25.5114L35.6074 24.097C35.9396 23.0436 37.0628 22.4588 38.1163 22.791Z" fill="#3F4FB4"/>
<path fill-rule="evenodd" clip-rule="evenodd" d="M38.288 18.8671C37.2096 19.1062 36.1416 18.4258 35.9025 17.3474L35.5815 15.8996L35.1619 14.5685L34.6278 13.2791L33.9833 12.0411L33.2334 10.8641L32.3838 9.75681L31.4409 8.72783L30.4119 7.78494L29.3047 6.93532L28.1276 6.18543L26.8897 5.54099L25.6002 5.0069L24.2692 4.58721L22.9066 4.28514L21.5229 4.10297L20.1286 4.04209L18.7342 4.10297L17.3505 4.28514L15.988 4.58721L14.6569 5.00689L13.3675 5.54099L12.1295 6.18542L10.9524 6.93532L9.84519 7.78494L8.81621 8.72782L7.87332 9.75681L7.0237 10.8641L6.27382 12.0411L5.62937 13.2791L5.09529 14.5685L4.67559 15.8996L4.37352 17.2621L4.19135 18.6458L4.13048 20.0402L4.19135 21.4345L4.37353 22.8182L4.6756 24.1808L5.09528 25.5119L5.62937 26.8013L6.27382 28.0392L7.0237 29.2163L7.87332 30.3236L8.81622 31.3526L9.8452 32.2954L10.9524 33.145L12.1295 33.895L13.3675 34.5394L14.6569 35.0735L15.988 35.4932L17.3505 35.7952L18.7342 35.9774L20.2158 36.0421C21.3193 36.0903 22.1748 37.0239 22.1267 38.1274C22.0785 39.2309 21.1448 40.0865 20.0413 40.0383L18.3853 39.966L16.6553 39.7382L14.9517 39.3605L13.2875 38.8358L11.6754 38.1681L10.1276 37.3623L8.65595 36.4248L7.27159 35.3625L5.98509 34.1837L4.80622 32.8972L3.74397 31.5128L2.80641 30.0411L2.00069 28.4934L1.33293 26.8812L0.808216 25.2171L0.430538 23.5135L0.202777 21.7835L0.126664 20.0402L0.202782 18.2969L0.430541 16.5669L0.808216 14.8633L1.33293 13.1991L2.00069 11.587L2.80641 10.0392L3.74397 8.56757L4.80622 7.18321L5.98509 5.8967L7.27159 4.71784L8.65595 3.65558L10.1276 2.71803L11.6754 1.9123L13.2875 1.24454L14.9517 0.719831L16.6553 0.342156L18.3853 0.114394L20.1286 0.0382815L21.8719 0.114394L23.6019 0.342156L25.3054 0.719829L26.9696 1.24454L28.5817 1.9123L30.1295 2.71803L31.6012 3.65559L32.9855 4.71784L34.2721 5.8967L35.4509 7.18321L36.5132 8.56757L37.4507 10.0392L38.2565 11.587L38.9242 13.1991L39.4489 14.8633L39.8077 16.4816C40.0468 17.56 39.3664 18.628 38.288 18.8671Z" fill="white"/>
</svg>
