<svg width="26" height="17" viewBox="0 0 26 17" fill="none" xmlns="http://www.w3.org/2000/svg">
<g clip-path="url(#clip0_56_4190)">
<path d="M8.38566 13.1949L8.34097 13.2382C7.63928 13.9532 6.82728 14.3309 5.99083 14.3309C4.24394 14.3309 2.97671 13.0204 2.97671 11.2127C2.97671 9.40788 4.24394 8.09527 5.99083 8.09527C6.82728 8.09527 7.63928 8.47509 8.34097 9.19284L8.38566 9.23543L9.50906 7.87673L9.47903 7.84043C8.54484 6.73657 7.42354 6.19966 6.04529 6.19966C4.66356 6.19966 3.39842 6.66536 2.48797 7.50389C1.49653 8.41295 0.974976 9.69484 0.974976 11.2127C0.974976 12.7306 1.49653 14.0153 2.48797 14.9243C3.39842 15.7678 4.66356 16.23 6.04529 16.23C7.42354 16.23 8.54484 15.6924 9.47903 14.5878L9.50906 14.5543L8.38566 13.1949Z" fill="#434343"/>
<path d="M10.6437 16.0444H12.6279V6.35623H10.6437V16.0444Z" fill="#434343"/>
<path d="M20.4021 13.9385C19.8721 14.2611 19.3799 14.4238 18.9372 14.4238C18.2956 14.4238 18.0052 14.0845 18.0052 13.3304V8.18958H20.0278V6.36589H18.0052V3.35106L16.0607 4.39278V6.36589H14.3822V8.18958H16.0607V13.6579C16.0607 15.1471 16.9432 16.1665 18.2614 16.193C19.1558 16.2105 19.6948 15.9438 20.0216 15.7483L20.0425 15.735L20.5194 13.8666L20.4021 13.9385Z" fill="#434343"/>
<path d="M22.0446 16.0444H24.0316V6.35623H22.0446V16.0444Z" fill="#434343"/>
<path d="M25.1891 4.65808C23.3759 2.09011 20.3652 0.558257 17.3022 0.558257C14.2399 0.558257 11.2286 2.09011 9.41888 4.65808L9.32532 4.79004H11.6084L11.6336 4.76281C13.1871 3.15835 15.216 2.31074 17.3022 2.31074C19.3885 2.31074 21.416 3.15835 22.973 4.76281L22.9981 4.79004H25.2799L25.1891 4.65808Z" fill="#434343"/>
</g>
<defs>
<clipPath id="clip0_56_4190">
<rect width="24.6333" height="16" fill="white" transform="translate(0.810791 0.394531)"/>
</clipPath>
</defs>
</svg>
