<svg width="28" height="19" viewBox="0 0 28 19" fill="none" xmlns="http://www.w3.org/2000/svg">
<g clip-path="url(#clip0_95_6630)">
<path d="M8.57026 14.6434L8.52007 14.692C7.73179 15.4952 6.81958 15.9195 5.87993 15.9195C3.91747 15.9195 2.49386 14.4473 2.49386 12.4166C2.49386 10.389 3.91747 8.91445 5.87993 8.91445C6.81958 8.91445 7.73179 9.34114 8.52007 10.1475L8.57026 10.1953L9.83229 8.66895L9.79856 8.62816C8.7491 7.3881 7.48942 6.78493 5.94111 6.78493C4.38887 6.78493 2.96761 7.30809 1.94482 8.2501C0.831031 9.27134 0.245117 10.7114 0.245117 12.4166C0.245117 14.1218 0.831031 15.565 1.94482 16.5862C2.96761 17.5337 4.38887 18.053 5.94111 18.053C7.48942 18.053 8.7491 17.449 9.79856 16.2082L9.83229 16.1705L8.57026 14.6434Z" fill="#434343"/>
<path d="M11.1069 17.8448H13.3361V6.96113H11.1069V17.8448Z" fill="#434343"/>
<path d="M22.0694 15.4788C21.474 15.8412 20.9211 16.0239 20.4238 16.0239C19.703 16.0239 19.3767 15.6427 19.3767 14.7956V9.02041H21.6489V6.97167H19.3767V3.58483L17.1922 4.75508V6.97167H15.3066V9.02041H17.1922V15.1635C17.1922 16.8365 18.1837 17.9817 19.6645 18.0115C20.6693 18.0311 21.2748 17.7315 21.6419 17.5118L21.6654 17.4969L22.2011 15.398L22.0694 15.4788Z" fill="#434343"/>
<path d="M23.9146 17.8448H26.1468V6.96113H23.9146V17.8448Z" fill="#434343"/>
<path d="M27.4471 5.05336C25.4101 2.1685 22.028 0.447621 18.587 0.447621C15.1468 0.447621 11.7639 2.1685 9.73084 5.05336L9.62573 5.2016H12.1906L12.2188 5.17101C13.964 3.36856 16.2433 2.41635 18.587 2.41635C20.9306 2.41635 23.2084 3.36856 24.9575 5.17101L24.9858 5.2016H27.549L27.4471 5.05336Z" fill="#434343"/>
</g>
<defs>
<clipPath id="clip0_95_6630">
<rect width="27.673" height="17.9744" fill="white" transform="translate(0.0605469 0.263062)"/>
</clipPath>
</defs>
</svg>
