<svg width="18" height="17" viewBox="0 0 18 17" fill="none" xmlns="http://www.w3.org/2000/svg">
<g clip-path="url(#clip0_56_4224)">
<mask id="mask0_56_4224" style="mask-type:luminance" maskUnits="userSpaceOnUse" x="-106" y="-29" width="130" height="75">
<path d="M-105.121 -28.8303H23.0604V45.9424H-105.121V-28.8303Z" fill="white"/>
</mask>
<g mask="url(#mask0_56_4224)">
<path d="M13.0386 7.40175C13.0386 7.40175 12.7762 7.32511 12.4663 7.35769C12.5639 7.26209 12.6624 7.1052 12.7204 6.84456C12.866 6.19057 12.1066 5.78733 11.8077 5.2284C11.5091 4.66961 11.4825 4.22739 12.1126 4.21256L12.1003 4.20375C13.0241 4.81983 13.759 5.73499 14.142 6.86833C14.2133 7.07956 14.2891 7.4346 14.3341 7.66065C13.6302 7.51792 13.0386 7.40175 13.0386 7.40175ZM12.2612 12.6258C12.0566 12.7804 11.6728 13.0013 11.4882 13.1049C11.4476 12.3582 11.4085 11.7175 11.4085 11.7175C11.4085 11.7175 11.4152 11.4842 11.3299 11.2188C11.4486 11.2651 11.6109 11.2926 11.8343 11.2696C12.5007 11.201 12.6432 10.353 13.079 9.89288C13.5147 9.43263 13.9258 9.26773 14.139 9.8607L14.1436 9.84628C13.8512 10.9175 13.2153 11.9041 12.2612 12.6258ZM10.964 10.6703C10.8346 10.5709 10.6677 10.4973 10.4522 10.4716C10.4522 10.4716 8.18554 10.1197 7.45958 10.6749C7.45958 10.6749 7.41925 10.7028 7.37679 10.7648C7.48108 10.5717 7.53008 10.3282 7.45197 10.028C7.45197 10.028 7.00734 8.03812 6.30114 7.41417C6.49781 7.4382 6.71813 7.40322 6.95206 7.25995C6.95206 7.25995 8.94902 6.13128 9.17468 5.24576C9.17468 5.24576 9.17775 5.23548 9.18055 5.21839C9.16747 5.48811 9.24825 5.78933 9.55428 6.0449C9.55428 6.0449 11.0731 7.40522 12.0104 7.50203C11.8422 7.60177 11.6906 7.76146 11.592 8.01302C11.592 8.01302 10.8551 9.71463 10.964 10.6703ZM9.30633 13.4023L9.32142 13.4031C8.21104 13.3901 7.09613 13.0236 6.1572 12.2821C6.015 12.1698 5.81858 11.9794 5.66356 11.8234C6.21368 11.5714 6.64108 11.373 6.64108 11.373C6.64108 11.373 7.09693 11.2101 7.34074 10.8262C7.27585 10.9569 7.23232 11.1802 7.36184 11.5271C7.59631 12.1548 8.45285 12.0788 9.00804 12.3845C9.56323 12.6902 9.8264 13.0464 9.30633 13.4023ZM5.34124 7.53621C4.84253 7.98351 5.22574 8.75327 5.1439 9.38163C5.06191 10.0101 4.82638 10.3853 4.30524 10.0309L4.31005 10.0452C3.91669 9.00683 3.851 7.8349 4.19855 6.69021C4.27092 6.45201 4.44317 6.06439 4.53396 5.86597C5.01718 6.41355 5.4295 6.87487 5.4295 6.87487C5.4295 6.87487 5.59747 7.10146 5.87173 7.26275C5.73326 7.27878 5.55261 7.34661 5.34124 7.53621ZM6.02274 4.25863C6.90225 3.5806 8.00435 3.17723 9.20085 3.17723C9.46576 3.17723 9.92561 3.23638 10.126 3.26402C9.75096 3.91588 9.43171 4.47921 9.43171 4.47921C9.43171 4.47921 9.22395 4.77883 9.18523 5.15483C9.18536 5.02118 9.12594 4.76054 8.72324 4.51646C8.15029 4.16917 7.52514 4.75947 6.89998 4.86375C6.27483 4.9679 5.84743 4.85147 6.03516 4.24982L6.02274 4.25863ZM16.4614 8.1185C16.1243 8.03158 15.3689 7.87215 14.6532 7.72568C14.6651 7.71767 14.6755 7.70979 14.6832 7.70271C15.2271 7.19599 16.2885 5.19916 16.2885 5.19916C16.5116 4.72048 16.0184 3.91614 16.0184 3.91614L15.9895 3.87288C15.1146 2.58546 13.7763 1.58043 12.3963 0.965026C12.3963 0.965026 11.6032 0.825361 11.1939 1.45853C10.9975 1.76229 10.584 2.46983 10.2068 3.12395C10.1963 3.05012 10.1817 2.96987 10.1645 2.93168C9.85845 2.25405 8.30651 0.609456 8.30651 0.609456C7.9245 0.244806 7.00453 0.45457 7.00453 0.45457L6.9542 0.468055C5.4546 0.884779 4.07398 1.83119 3.04919 2.94143C3.04919 2.94143 2.66304 3.64816 3.13184 4.2386C3.35669 4.52154 3.89372 5.13894 4.3923 5.70508C4.33355 5.69734 4.27626 5.6924 4.24355 5.69667C3.50624 5.79267 1.48164 6.79983 1.48164 6.79983C1.02178 7.0594 0.955289 8.0006 0.955289 8.0006L0.953554 8.05268C0.916701 9.60875 1.42102 11.2047 2.18583 12.5079C2.18583 12.5079 2.74983 13.0827 3.45096 12.8057C3.7869 12.6728 4.53343 12.3384 5.21987 12.0259C5.09236 12.8655 5.26754 14.8515 5.26754 14.8515C5.34137 15.3745 6.19338 15.7799 6.19338 15.7799L6.24118 15.8006C7.67642 16.4029 9.34639 16.5159 10.8388 16.2795C10.8388 16.2795 11.5798 15.9643 11.5778 15.2104C11.5767 14.8495 11.5379 14.0341 11.4977 13.2817C11.549 13.3322 11.6055 13.3838 11.6407 13.4029C12.2935 13.7589 14.5233 14.1344 14.5233 14.1344C15.0481 14.1948 15.6552 13.4725 15.6552 13.4725L15.6872 13.4315C16.6319 12.1944 17.1623 10.6068 17.3098 9.1031C17.3098 9.1031 17.1915 8.3065 16.4614 8.1185Z" fill="#434343"/>
</g>
</g>
<defs>
<clipPath id="clip0_56_4224">
<rect width="16.3582" height="16" fill="white" transform="translate(0.95166 0.394531)"/>
</clipPath>
</defs>
</svg>
