<svg width="60" height="17" viewBox="0 0 60 17" fill="none" xmlns="http://www.w3.org/2000/svg">
<g clip-path="url(#clip0_56_4168)">
<path d="M24.3661 0.394531H8.36609V16.3945H24.3661V0.394531Z" fill="white"/>
<path d="M32.3661 8.41335L24.3661 0.394531V16.4134L32.3661 8.41335Z" fill="#434343"/>
<path d="M16.3661 8.41335L24.3661 0.394531H8.36609L16.3661 8.41335Z" fill="#434343"/>
<path d="M0.34729 8.41335L8.36611 16.4134V0.394531L0.34729 8.41335Z" fill="#434343"/>
<path d="M16.3661 8.41357L8.36609 16.4136H24.3661L16.3661 8.41357Z" fill="#434343"/>
<path d="M39.3873 8.88395H36.4885V11.7451H35.0391V5.04395H36.4885V7.79218H39.3873V5.04395H40.8367V11.7451H39.3873V8.88395Z" fill="#434343"/>
<path d="M44.3378 11.877C42.8884 11.877 41.7025 11.2935 41.6837 9.69351H43.1331C43.152 10.4088 43.5661 10.8417 44.3567 10.8417C44.9402 10.8417 45.6178 10.5406 45.6178 9.88174C45.6178 9.35468 45.1661 9.20409 44.4131 8.97821L43.9237 8.84645C42.8696 8.54527 41.8155 8.13115 41.8155 6.92645C41.8155 5.43939 43.2084 4.93115 44.4696 4.93115C45.7684 4.93115 46.8978 5.38292 46.9167 6.86998H45.4672C45.4108 6.26762 45.0531 5.90998 44.3755 5.90998C43.8296 5.90998 43.3025 6.19233 43.3025 6.79468C43.3025 7.28409 43.7543 7.43468 44.6955 7.73586L45.2602 7.90527C46.4084 8.26292 47.1425 8.65821 47.1425 9.78762C47.1237 11.2935 45.6555 11.877 44.3378 11.877Z" fill="#434343"/>
<path d="M47.952 5.06294H50.2861C50.7191 5.04412 51.1708 5.06294 51.6038 5.13824C52.4132 5.32647 53.0344 5.85353 53.0344 6.75706C53.0344 7.62294 52.4885 8.05588 51.6979 8.26294C52.6014 8.43235 53.2791 8.88412 53.2791 9.88177C53.2791 11.4065 51.7732 11.7453 50.6061 11.7453H47.9709L47.952 5.06294ZM50.2861 7.84882C50.9261 7.84882 51.585 7.71706 51.585 6.94529C51.585 6.24882 50.9826 6.06059 50.3803 6.06059H49.3638V7.84882H50.2861ZM50.4179 10.7476C51.0956 10.7476 51.7544 10.5971 51.7544 9.76882C51.7544 8.94059 51.1897 8.79 50.4932 8.79H49.345V10.7476H50.4179Z" fill="#434343"/>
<path d="M57.0438 11.8768C54.8791 11.8768 53.9191 10.5027 53.9191 8.45093C53.9191 6.39917 54.992 4.91211 57.1191 4.91211C58.4555 4.91211 59.7544 5.51446 59.792 7.02034H58.2861C58.2108 6.3427 57.7591 6.00387 57.1191 6.00387C55.8014 6.00387 55.4061 7.41564 55.4061 8.48858C55.4061 9.56152 55.8014 10.8039 57.0626 10.8039C57.7214 10.8039 58.2108 10.4462 58.3049 9.76858H59.8108C59.6602 11.3121 58.4367 11.8768 57.0438 11.8768Z" fill="#434343"/>
</g>
<defs>
<clipPath id="clip0_56_4168">
<rect width="59.4635" height="16" fill="white" transform="translate(0.34729 0.394531)"/>
</clipPath>
</defs>
</svg>
