<svg width="25" height="25" viewBox="0 0 25 25" fill="none" xmlns="http://www.w3.org/2000/svg">
<path fill-rule="evenodd" clip-rule="evenodd" d="M16.3333 3.91797H8.33325C5.57183 3.91797 3.33325 6.15655 3.33325 8.91797V16.918C3.33325 19.6794 5.57183 21.918 8.33325 21.918H16.3333C19.0947 21.918 21.3333 19.6794 21.3333 16.918V8.91797C21.3333 6.15655 19.0947 3.91797 16.3333 3.91797ZM19.5833 16.918C19.5778 18.7106 18.1259 20.1625 16.3333 20.168H8.33325C6.5406 20.1625 5.08874 18.7106 5.08325 16.918V8.91797C5.08874 7.12532 6.5406 5.67346 8.33325 5.66797H16.3333C18.1259 5.67346 19.5778 7.12532 19.5833 8.91797V16.918ZM17.0833 9.16797C17.6356 9.16797 18.0833 8.72025 18.0833 8.16797C18.0833 7.61569 17.6356 7.16797 17.0833 7.16797C16.531 7.16797 16.0833 7.61569 16.0833 8.16797C16.0833 8.72025 16.531 9.16797 17.0833 9.16797ZM12.3333 8.41797C9.84797 8.41797 7.83325 10.4327 7.83325 12.918C7.83325 15.4033 9.84797 17.418 12.3333 17.418C14.8186 17.418 16.8333 15.4033 16.8333 12.918C16.836 11.7237 16.3627 10.5775 15.5182 9.73305C14.6737 8.88856 13.5276 8.41531 12.3333 8.41797ZM9.58325 12.918C9.58325 14.4368 10.8145 15.668 12.3333 15.668C13.8521 15.668 15.0833 14.4368 15.0833 12.918C15.0833 11.3992 13.8521 10.168 12.3333 10.168C10.8145 10.168 9.58325 11.3992 9.58325 12.918Z" fill="#434343"/>
</svg>
