<svg width="25" height="25" viewBox="0 0 25 25" fill="none" xmlns="http://www.w3.org/2000/svg">
<path fill-rule="evenodd" clip-rule="evenodd" d="M4.83325 3.91797C4.00482 3.91797 3.33325 4.58954 3.33325 5.41797V20.418C3.33325 21.2464 4.00482 21.918 4.83325 21.918H19.8333C20.6617 21.918 21.3333 21.2464 21.3333 20.418V5.41797C21.3333 4.58954 20.6617 3.91797 19.8333 3.91797H4.83325ZM8.85401 7.92069C8.85964 8.87694 8.14386 9.46616 7.29448 9.46194C6.49432 9.45772 5.79682 8.82069 5.80104 7.9221C5.80526 7.07694 6.47323 6.39772 7.34089 6.41741C8.2212 6.4371 8.85964 7.08257 8.85401 7.92069ZM12.613 10.6797H10.093H10.0916V19.2396H12.755V19.0399C12.755 18.66 12.7547 18.28 12.7544 17.8999C12.7536 16.8861 12.7527 15.8712 12.7579 14.8577C12.7593 14.6116 12.7705 14.3557 12.8338 14.1208C13.0714 13.2433 13.8604 12.6766 14.7407 12.8159C15.306 12.9044 15.68 13.2321 15.8375 13.7651C15.9346 14.0983 15.9782 14.4569 15.9824 14.8043C15.9938 15.8519 15.9922 16.8995 15.9906 17.9472C15.99 18.317 15.9894 18.687 15.9894 19.0568V19.2382H18.6613V19.0329C18.6613 18.5809 18.6611 18.129 18.6608 17.6771C18.6603 16.5476 18.6597 15.4181 18.6627 14.2882C18.6641 13.7777 18.6093 13.2743 18.4841 12.7807C18.2971 12.0466 17.9104 11.4391 17.2818 11.0004C16.836 10.6882 16.3466 10.4871 15.7996 10.4646C15.7373 10.462 15.6745 10.4586 15.6114 10.4552C15.3317 10.4401 15.0474 10.4247 14.78 10.4786C14.015 10.6319 13.3429 10.9821 12.8352 11.5994C12.7762 11.6702 12.7185 11.7421 12.6324 11.8494L12.613 11.8737V10.6797ZM6.01489 19.2424H8.66567V10.6853H6.01489V19.2424Z" fill="#434343"/>
</svg>
