<svg width="19" height="19" viewBox="0 0 19 19" fill="none" xmlns="http://www.w3.org/2000/svg">
<path fill-rule="evenodd" clip-rule="evenodd" d="M4.33865 18.614C1.97536 18.614 0.0591049 16.698 0.0591049 14.3343C0.0591049 11.971 1.97536 10.0547 4.33865 10.0547C6.70237 10.0547 8.61841 11.971 8.61841 14.3343C8.61841 16.698 6.70237 18.614 4.33865 18.614Z" fill="#3F4FB4"/>
<path fill-rule="evenodd" clip-rule="evenodd" d="M13.754 18.614C11.3904 18.614 9.47423 16.698 9.47423 14.3343C9.47423 11.971 11.3904 10.0547 13.754 10.0547C16.1173 10.0547 18.0334 11.971 18.0334 14.3343C18.0334 16.698 16.1173 18.614 13.754 18.614Z" fill="#3F4FB4"/>
<path fill-rule="evenodd" clip-rule="evenodd" d="M4.33865 9.19923C1.97536 9.19923 0.0591049 7.28297 0.0591049 4.91925C0.0591049 2.55597 1.97536 0.639709 4.33865 0.639709C6.70237 0.639709 8.61841 2.55597 8.61841 4.91925C8.61841 7.28297 6.70237 9.19923 4.33865 9.19923Z" fill="#3F4FB4"/>
<path fill-rule="evenodd" clip-rule="evenodd" d="M13.754 9.19911C11.3904 9.19911 9.47423 7.28285 9.47423 4.91913C9.47423 2.55585 11.3904 0.639587 13.754 0.639587C16.1173 0.639587 18.0334 2.55585 18.0334 4.91913C18.0334 7.28285 16.1173 9.19911 13.754 9.19911Z" fill="#3F4FB4"/>
</svg>
