<svg width="39" height="27" viewBox="0 0 39 27" fill="none" xmlns="http://www.w3.org/2000/svg">
<path d="M38.043 11.9794C37.9547 16.0353 35.7776 19.5254 32.5849 21.4824C31.3688 22.2281 30.0095 22.7102 28.6051 22.9594L11.0322 26.0776L12.7555 22.6424L0.0698242 26.1849L9.02945 17.0061L5.42897 16.3343L18.4751 3.73323L18.9064 3.31664C21.1567 1.25385 24.2273 0.0903435 27.533 0.352272C33.527 0.827068 38.174 5.96794 38.043 11.9794Z" fill="white" fill-opacity="0.95"/>
<path d="M31.6485 7.45803L20.3322 7.16201C19.6462 7.14413 19.1501 7.81246 19.3663 8.46375L20.0403 10.4949C20.2534 11.1369 20.0272 11.8426 19.4809 12.2411L4.06909 23.7173L21.7948 17.0779C22.4016 16.866 23.0762 17.0494 23.4921 17.5392L25.7499 20.1969C25.9214 20.3985 26.2397 20.3746 26.3788 20.1495L32.849 9.67902C33.4396 8.72339 32.7715 7.48734 31.6485 7.45803Z" fill="#3F4FB4"/>
</svg>
