<svg width="25" height="25" viewBox="0 0 25 25" fill="none" xmlns="http://www.w3.org/2000/svg">
<path d="M21.9263 7.87879C21.8124 7.45619 21.5898 7.07079 21.2807 6.76096C20.9716 6.45112 20.5867 6.22765 20.1643 6.11279C18.5983 5.68279 12.3333 5.67579 12.3333 5.67579C12.3333 5.67579 6.06934 5.66879 4.50234 6.07979C4.08026 6.19994 3.69616 6.42657 3.3869 6.73792C3.07765 7.04928 2.85362 7.43491 2.73634 7.85779C2.32334 9.42379 2.31934 12.6718 2.31934 12.6718C2.31934 12.6718 2.31534 15.9358 2.72534 17.4858C2.95534 18.3428 3.63034 19.0198 4.48834 19.2508C6.07034 19.6808 12.3183 19.6878 12.3183 19.6878C12.3183 19.6878 18.5833 19.6948 20.1493 19.2848C20.5718 19.1701 20.9571 18.9472 21.267 18.638C21.5769 18.3288 21.8007 17.944 21.9163 17.5218C22.3303 15.9568 22.3333 12.7098 22.3333 12.7098C22.3333 12.7098 22.3533 9.44479 21.9263 7.87879ZM10.3293 15.6808L10.3343 9.68079L15.5413 12.6858L10.3293 15.6808Z" fill="#434343"/>
</svg>
